<?xml version="1.0" encoding="iso-8859-1"?>
<!-- Generator: Adobe Illustrator 18.0.0, SVG Export Plug-In . SVG Version: 6.00 Build 0)  -->
<!DOCTYPE svg PUBLIC "-//W3C//DTD SVG 1.1//EN" "http://www.w3.org/Graphics/SVG/1.1/DTD/svg11.dtd">
<svg xmlns="http://www.w3.org/2000/svg" xmlns:xlink="http://www.w3.org/1999/xlink" version="1.1" id="Capa_1" x="0px" y="0px" viewBox="0 0 56.609 56.609" style="enable-background:new 0 0 56.609 56.609;" xml:space="preserve" width="512px" height="512px">
<g>
	<path d="M52.44,14.297C45.443,2.89,31.239-1.24,19.132,3.991c-0.053-0.078-0.139-0.131-0.27-0.117   C6.729,5.194-0.242,16.449,0.006,28.018c0.262,12.236,6.759,23.099,19.11,25.899c10.367,2.35,24.188,0.471,31.757-7.64   C58.476,38.132,58.019,23.393,52.44,14.297z M39.17,52.23c-12.02,3.684-28.12,2.28-34.729-9.886   C-2.915,28.804,0.917,7.096,18.437,4.631c0.057,0.085,0.144,0.145,0.255,0.099C31.733-0.669,46.94,4.078,53.103,17.19   c2.957,6.292,3.403,14.463,1.382,21.119C52.275,45.589,46.207,50.074,39.17,52.23z" fill="#FFFFFF"/>
	<path d="M19.15,16.754c-0.408-0.314-0.992,0.124-0.827,0.604c0.028,0.083,0.141,0.048,0.129-0.035   c-0.045-0.302,0.315-0.566,0.604-0.407C19.165,16.974,19.243,16.825,19.15,16.754z" fill="#FFFFFF"/>
	<path d="M19.822,17.18c-0.136-0.031-0.186,0.16-0.057,0.207c-0.054,0.034-0.109,0.068-0.163,0.102   c-0.007-0.125-0.184-0.124-0.193,0c-0.023,0.312,0.332,0.616,0.622,0.392C20.311,17.664,20.12,17.249,19.822,17.18z" fill="#FFFFFF"/>
	<path d="M21.241,17.672c-0.349,0.015-0.49-0.161-0.424-0.528c0.037-0.066-0.054-0.143-0.108-0.083   c-0.359,0.402,0.124,1.082,0.61,0.797C21.422,17.798,21.352,17.65,21.241,17.672z" fill="#FFFFFF"/>
	<path d="M17.316,18.802c-0.072,0.092,0.051,0.224,0.132,0.132c0.281-0.322,0.639-0.048,0.767,0.252   c0.028,0.067,0.14,0.047,0.154-0.02C18.487,18.599,17.623,18.411,17.316,18.802z" fill="#FFFFFF"/>
	<path d="M18.816,19.684c-0.263,0.247-0.74,0.182-0.8-0.232c-0.015-0.103-0.181-0.077-0.18,0.024   c0.01,0.592,0.872,0.918,1.203,0.38C19.126,19.716,18.932,19.575,18.816,19.684z" fill="#FFFFFF"/>
	<path d="M36.981,20.276c-0.013,0.044,0,0.097,0.034,0.128c0.146,0.136,0.238,0.163,0.443,0.144   c0.089-0.008,0.087-0.127,0-0.137c-0.189-0.149-0.17-0.221,0.055-0.219c0.139,0,0.235,0.065,0.288,0.193   c0.073,0.135,0.254,0.036,0.231-0.097C37.942,19.742,37.122,19.784,36.981,20.276z" fill="#FFFFFF"/>
	<path d="M38.7,20.265c-0.082-0.126-0.259-0.043-0.235,0.099c0.063,0.36-0.096,0.704-0.508,0.682   c-0.111-0.006-0.139,0.176-0.027,0.197C38.446,21.341,39.025,20.767,38.7,20.265z" fill="#FFFFFF"/>
	<path d="M38.608,19.909c-0.055,0.012-0.053,0.095,0,0.109c0.476,0.118,0.577,0.411,0.715,0.821   c0.039,0.114,0.182,0.106,0.224,0C39.76,20.297,39.108,19.799,38.608,19.909z" fill="#FFFFFF"/>
	<path d="M37.25,22.68c-0.183,0.219-0.102,0.624,0.217,0.622c0.075-0.001,0.097-0.121,0.018-0.135   c-0.033-0.033-0.067-0.066-0.101-0.1c-0.01-0.201,0.078-0.24,0.265-0.117c0.253,0.061,0.251,0.097,0.419,0.265   c0.081,0.08,0.255-0.001,0.206-0.12C38.132,22.75,37.594,22.269,37.25,22.68z" fill="#FFFFFF"/>
	<path d="M38.984,23.442c-0.087,0.301-0.371,0.462-0.658,0.29c-0.12-0.072-0.257,0.098-0.151,0.196   c0.385,0.356,1.093,0.102,1.072-0.451C39.24,23.328,39.026,23.294,38.984,23.442z" fill="#FFFFFF"/>
	<path d="M30.458,9.596c-0.061,0-0.061,0.095,0,0.095C30.519,9.691,30.519,9.596,30.458,9.596z" fill="#FFFFFF"/>
	<path d="M30.861,11.105c-0.16-0.272-0.578-0.645-0.872-0.305c-0.168,0.195-0.122,0.49,0.123,0.573   c0.099,0.034,0.167-0.124,0.072-0.17c0.232-0.176,0.412-0.173,0.539,0.008C30.794,11.281,30.912,11.192,30.861,11.105z" fill="#FFFFFF"/>
	<path d="M31.296,11.313c-0.03,0.279-0.173,0.363-0.428,0.254c-0.112-0.089-0.272,0.059-0.162,0.162   c0.346,0.321,0.912,0.055,0.896-0.415C31.595,11.113,31.274,11.121,31.296,11.313z" fill="#FFFFFF"/>
	<path d="M30.869,13.078c-0.275,0.101-0.329,0.442-0.152,0.644c0.06,0.069,0.177-0.021,0.127-0.098   c0.17-0.325,0.306-0.334,0.405-0.028c0.035,0.091,0.078,0.178,0.129,0.26c0.045,0.08,0.17,0.043,0.17-0.046   C31.551,13.497,31.265,12.932,30.869,13.078z" fill="#FFFFFF"/>
	<path d="M30.676,12.795c-0.031-0.122-0.21-0.092-0.214,0.029c-0.011,0.297-0.297,0.61-0.64,0.428   c-0.103-0.054-0.185,0.09-0.09,0.155C30.162,13.7,30.81,13.33,30.676,12.795z" fill="#FFFFFF"/>
	<path d="M42.996,21.972c-0.439-0.715-1.519-0.024-1.42,0.684c0.007,0.049,0.081,0.034,0.083-0.011   c0.023-0.645,0.747-0.748,1.203-0.538C42.945,22.145,43.051,22.063,42.996,21.972z" fill="#FFFFFF"/>
	<path d="M43.329,22.091c-0.081-0.1-0.206,0.013-0.191,0.111c0.019,0.313-0.131,0.426-0.451,0.341   c-0.098-0.073-0.218,0.087-0.13,0.168C42.958,23.081,43.701,22.551,43.329,22.091z" fill="#FFFFFF"/>
	<path d="M43.284,21.593c-0.101,0.039-0.062,0.2,0.046,0.166c0.433-0.138,0.661,0.125,0.874,0.442   c0.083,0.124,0.253,0.043,0.231-0.098C44.353,21.587,43.713,21.428,43.284,21.593z" fill="#FFFFFF"/>
	<path d="M42.874,24.72c0.049,0.052,0.137,0.011,0.138-0.057l0.283-0.149c0.07,0.106,0.268,0.042,0.218-0.092   C43.276,23.783,42.472,24.296,42.874,24.72z" fill="#FFFFFF"/>
	<path d="M43.813,24.607c-0.118,0.423-0.573,0.673-0.976,0.455c-0.133-0.072-0.237,0.115-0.117,0.2   c0.531,0.38,1.308,0.033,1.359-0.619C44.091,24.488,43.853,24.463,43.813,24.607z" fill="#FFFFFF"/>
	<path d="M33.055,26.906c-0.388,0.35-0.958-0.152-0.695-0.561c0.072-0.112-0.1-0.207-0.176-0.103   c-0.522,0.712,0.465,1.525,1.02,0.813C33.286,26.951,33.159,26.813,33.055,26.906z" fill="#FFFFFF"/>
	<path d="M33.316,26.477c-0.094-0.074-0.229,0.056-0.134,0.134c0.264,0.217,0.298,0.569,0.078,0.839   c-0.067,0.083,0.039,0.196,0.119,0.119C33.71,27.255,33.671,26.757,33.316,26.477z" fill="#FFFFFF"/>
	<path d="M32.202,28.173c-0.339,0.216-0.506,0.052-0.503-0.492c0.063-0.098-0.085-0.215-0.163-0.126   c-0.52,0.593,0.253,1.377,0.829,0.83C32.478,28.28,32.334,28.095,32.202,28.173z" fill="#FFFFFF"/>
	<path d="M33.684,28.914c-0.062,0.144,0.142,0.272,0.215,0.126c0.215-0.143,0.373-0.137,0.473,0.017   c0.08,0.093,0.2-0.011,0.185-0.108C34.488,28.5,33.841,28.549,33.684,28.914z" fill="#FFFFFF"/>
	<path d="M36.516,36.046c-0.245,0.225-0.311,0.108-0.198-0.354c0.101-0.019,0.078-0.185-0.024-0.18   c-0.374,0.019-0.688,0.41-0.445,0.763c0.22,0.322,0.698,0.249,0.863-0.079C36.773,36.076,36.617,35.937,36.516,36.046z" fill="#FFFFFF"/>
	<path d="M36.966,35.795c-0.08-0.018-0.111,0.097-0.034,0.122c0.537,0.177,0.621,0.709,0.394,1.152   c-0.097,0.188,0.163,0.338,0.282,0.165C37.983,36.69,37.564,35.931,36.966,35.795z" fill="#FFFFFF"/>
	<path d="M37.433,37.706c-0.161,0.1-0.299,0.238-0.492,0.273c-0.171,0.091-0.315,0.035-0.434-0.168   c-0.047-0.151,0.01-0.269,0.173-0.353c0.116-0.015,0.124-0.182,0-0.186c-0.415-0.014-0.606,0.504-0.415,0.836   c0.312,0.541,1.14,0.257,1.37-0.199C37.697,37.783,37.565,37.623,37.433,37.706z" fill="#FFFFFF"/>
	<path d="M40.017,37.673c0.021,0.122,0.217,0.092,0.214-0.029c0.311-0.378,0.521-0.413,0.63-0.105   c0.064,0.141,0.252,0.032,0.231-0.097C40.969,36.675,39.886,36.914,40.017,37.673z" fill="#FFFFFF"/>
	<path d="M40.704,38.794c-0.09-0.004-0.181-0.009-0.271-0.013c-0.024-0.143-0.248-0.105-0.249,0.034   c-0.003,0.639,0.906,0.62,0.833-0.02C40.994,38.591,40.73,38.594,40.704,38.794z" fill="#FFFFFF"/>
	<path d="M39.411,39.066c-0.093,0.063-0.013,0.195,0.087,0.149c0.048,0.067,0.096,0.134,0.143,0.201   c-0.031,0.122,0.123,0.218,0.215,0.125C40.13,39.261,39.711,38.861,39.411,39.066z" fill="#FFFFFF"/>
	<path d="M20.908,31.85c-0.218,0.123-0.338-0.024-0.361-0.44c0.092-0.079-0.028-0.236-0.13-0.168   c-0.699,0.461,0.128,1.388,0.599,0.794C21.075,31.96,21.023,31.805,20.908,31.85z" fill="#FFFFFF"/>
	<path d="M21.125,31.423c-0.082,0-0.081,0.123,0,0.126c0.578,0.025,0.508,0.562,0.386,0.911   c-0.051,0.145,0.141,0.228,0.241,0.14C22.241,32.168,21.655,31.424,21.125,31.423z" fill="#FFFFFF"/>
	<path d="M22.005,33.402c-0.08,0.265-0.289,0.235-0.625-0.092c0.001-0.1-0.16-0.128-0.18-0.024   c-0.14,0.757,0.961,1.001,1.084,0.234C22.309,33.364,22.084,33.23,22.005,33.402z" fill="#FFFFFF"/>
	<path d="M19.457,32.729c-0.07-0.005-0.087,0.112-0.017,0.124c0.281,0.136,0.347,0.309,0.197,0.52   c-0.069,0.125,0.108,0.28,0.207,0.16C20.114,33.206,19.857,32.757,19.457,32.729z" fill="#FFFFFF"/>
	<path d="M6.986,24.835c0.089-0.049,0.028-0.204-0.07-0.167c-0.278,0.104-0.709,0.353-0.739,0.694   c-0.025,0.282,0.238,0.442,0.481,0.379c0.135-0.035,0.111-0.206,0-0.251C6.276,25.335,6.887,24.889,6.986,24.835z" fill="#FFFFFF"/>
	<path d="M7.88,25.327c-0.004-0.058-0.045-0.104-0.106-0.106c-0.161-0.004-0.321-0.008-0.482-0.012   c-0.119-0.003-0.115,0.173,0,0.183c0.127,0.011,0.254,0.022,0.381,0.033c0.002,0.194,0.003,0.385,0.031,0.578   c0.017,0.116,0.186,0.078,0.193-0.026C7.913,25.758,7.895,25.545,7.88,25.327z" fill="#FFFFFF"/>
	<path d="M8.291,26.557c-0.104,0.014-0.112,0.174,0,0.169c0.335,0.107,0.451,0.285,0.348,0.532   c-0.047,0.135,0.166,0.225,0.231,0.097C9.079,26.95,8.743,26.497,8.291,26.557z" fill="#FFFFFF"/>
	<path d="M51.105,25.698c0.754-1.755,0.427-4.095-0.49-5.807c-0.557-1.039-1.322-1.892-2.199-2.566   c0.17,0.031,0.371-0.153,0.263-0.356c-5.264-9.881-17.37-13.552-27.625-9.457c-0.058,0.023-0.064,0.083-0.04,0.124   c-1.526-0.147-3.066,0.092-4.492,0.769c-1.158,0.55-2.481,1.461-2.992,2.675c-0.227-0.96-2.292,0.682-2.531,1.029   c-1.002,1.458-0.66,3.468,0.696,4.57c0.038,0.774,0.234,1.578,0.543,2.335c-3.485-1.713-2.943-9.013,1.578-8.627   c0.167,0.014,0.204-0.258,0.04-0.293c-2.952-0.633-4.488,2.302-4.368,5.089c-0.03-0.109-0.131-0.2-0.274-0.163   c-4.259,1.097-6.63,5.579-4.922,9.589c-1.512,1.223-1.675,3.362-1.22,5.161c0.368,1.452,1.134,3.478,2.856,3.525   c0.009,0.087,0.007,0.172,0.019,0.259c0.086,0.605,0.305,1.401,0.662,2.104c-0.312,0.118-0.449,0.666-0.501,0.986   c-0.144,0.894,0.088,1.836,0.604,2.578c0.87,1.251,2.956,1.994,4.328,1.113c0.47,0.029,0.965-0.038,1.453-0.227   c0.646-0.25,1.181-0.679,1.538-1.212c-1.069,3.004-4.8,3.497-7.19,1.404c-2.043-1.79-2.24-4.516-0.997-6.818   c0.063-0.117-0.104-0.264-0.193-0.149c-2.043,2.616-1.065,6.323,1.732,7.973c0.425,0.251,0.913,0.415,1.417,0.536l0,0   c0.719,2.623,3.663,4.547,5.915,5.829c2.822,1.608,6.003,2.5,9.244,2.607c0.316,0.01,0.307-0.459,0-0.485   c-1.412-0.12-2.97-0.388-4.541-0.811c0.643,0.094,1.233,0.143,1.701,0.138c0.092-0.001,0.157-0.04,0.201-0.096   c1.089,0.55,2.295,0.787,3.487,0.71c0.027,0.051,0.058,0.1,0.088,0.149c0.222,0.565,0.666,0.946,1.222,1.183   c1.56,0.934,3.855,0.987,5.364,0.346c0.812-0.345,1.461-0.909,1.939-1.585c1.508,0.395,3.221,0.018,4.454-0.925   c0.017,0.032,0.045,0.06,0.089,0.075c3.526,1.208,7.042-1.805,6.591-5.453c1.372,0.903,3.479,0.906,4.443-0.572   c0.018-0.01,0.038-0.011,0.054-0.032c0.358-0.464-0.073-1.03-0.595-1.065c-0.082-0.006-0.116,0.088-0.088,0.15   c-0.524,0.289-0.928,0.646-1.558,0.77c-0.684,0.135-1.37,0.016-1.979-0.306c1.294,0.057,2.553-0.512,3.717-1.954   c1.747-2.166,2.162-5.16,1.042-7.701c-0.03-0.069-0.089-0.093-0.151-0.099c0.021-0.08,0.053-0.158,0.071-0.239   c1.277-0.181,2.217-1.676,2.507-2.83C52.374,28.226,51.977,26.828,51.105,25.698z M49.682,19.298   c1.827,2.666,2.065,6.584-1.107,8.165c0.133-0.477,0.198-0.962,0.186-1.441c2.024-1.169,1.686-4.45,0.801-6.237   c-1.308-2.644-4.238-3.858-7.013-2.879c-0.035,0.012-0.05,0.038-0.069,0.061c-0.15-0.068-0.297-0.141-0.453-0.193   c-0.046-0.164-0.108-0.315-0.168-0.466C44.869,15.597,47.897,16.694,49.682,19.298z M41.365,45.338   c0.355-0.141,0.696-0.315,1.021-0.513c-0.214,0.962-0.217,1.807-0.985,2.569c-0.751,0.746-1.79,1-2.807,0.833   c0.221-0.263,0.422-0.543,0.572-0.857c0.647,0.126,1.28-0.109,1.723-0.603C41.191,46.427,41.486,45.82,41.365,45.338z    M37.438,45.089c-2.757-0.769-3.951-3.765-2.709-6.282c0.161,0.207,0.342,0.399,0.557,0.555c-0.206,1.902,0.913,3.734,2.784,4.316   c1.702,0.529,3.95-0.09,4.678-1.792c0.426,0.223,0.85,0.375,1.273,0.477C42.737,44.599,39.957,45.792,37.438,45.089z    M29.356,48.797c-0.029-0.107-0.169-0.144-0.247-0.065c-0.376,0.38-0.494,0.841-1.028,1.093c-0.133,0.063-0.275,0.107-0.42,0.137   c-0.001-0.042-0.057-0.061-0.071-0.015c-0.003,0.009,0.001,0.014-0.001,0.023c-0.103,0.017-0.206,0.034-0.309,0.032   c-0.118-0.002-1.163-0.215-0.901-0.47c0.028-0.027,0.031-0.056,0.025-0.084c0.252-0.081,0.5-0.175,0.743-0.288   c0.025-0.012,0.028-0.037,0.045-0.054c0.687,0.074,1.399-0.081,1.961-0.491c0.653-0.477,1.008-1.238,1.069-2.024   c0.174,0.035,0.35,0.035,0.525,0.043c-0.01,0.801-0.158,1.545-0.646,2.215c-0.249,0.342-0.547,0.637-0.908,0.863   c-0.018,0.012-0.118,0.059-0.251,0.118C29.26,49.55,29.466,49.198,29.356,48.797z M10.853,34.44   c-0.057,0.042-0.086,0.117-0.017,0.174c0.056,0.046,0.119,0.08,0.178,0.119c0.011,0.016,0.019,0.033,0.03,0.049   c-0.081,0.027-0.165,0.043-0.243,0.08c-0.04,0.019-0.059,0.047-0.071,0.076c-0.172-0.028-0.334-0.011-0.488,0.039   c0-0.011,0.008-0.02,0.005-0.031c-0.33-1.403,0.035-2.476,0.931-3.49c0.193,0.738,0.757,1.426,1.372,1.982   c-0.346,0.271-0.816,0.336-1.14-0.066c-0.016-0.02-0.037-0.025-0.059-0.029c0.118-0.168,0.267-0.304,0.398-0.486   c0.097-0.134-0.063-0.267-0.19-0.248c-0.457,0.069-0.737,0.648-0.799,1.061C10.718,33.946,10.755,34.203,10.853,34.44z    M9.965,35.065c0.007,0.016,0.022,0.018,0.032,0.029c-0.234,0.142-0.439,0.369-0.615,0.637c-0.133-0.289-0.22-0.826-0.314-1.129   c-0.141-0.452-0.254-0.923-0.263-1.399c-0.021-1.061,0.375-2.073,1.247-2.715c0.031-0.023,0.037-0.055,0.052-0.084   c0.327,0.131,0.663,0.236,1.006,0.308c-0.008,0.068,0.005,0.135,0.004,0.202C9.791,31.732,9.333,33.696,9.965,35.065z    M8.744,38.271c-0.595-0.123-1.103-0.549-0.96-1.228c0.291,0.171,0.616,0.268,0.981,0.248c0.004,0,0.009,0.005,0.013,0.005   c-0.059,0.306-0.092,0.595-0.069,0.815C8.715,38.169,8.735,38.215,8.744,38.271z M9.068,29.847c0.211,0.135,0.428,0.26,0.651,0.369   c-0.765,0.55-1.248,1.331-1.38,2.281c-0.078,0.564-0.025,1.141,0.109,1.692c0.076,0.313,0.178,0.622,0.311,0.916   c0.225,0.494,0.25,0.247,0.509,0.713c0.013,0.022,0.033,0.012,0.052,0.014c-0.214,0.352-0.375,0.764-0.481,1.16   C6.966,34.73,7.131,31.977,9.068,29.847z M7.383,27.186c-0.306,0.165-0.256,0.587,0.011,0.776c0.08,0.056,0.164,0.073,0.247,0.083   c-0.119,0.021-0.238,0.041-0.36,0.045c-1.258,0.039-2.25-0.572-2.229-1.91c0.001-0.083,0.014-0.169,0.024-0.253   c0.068-0.099,0.12-0.204,0.197-0.3c0.1-0.124,0.045-0.269-0.053-0.344c0.275-0.79,0.878-1.486,1.705-1.629   c0.017,0.096,0.088,0.186,0.202,0.186c1.144,0.006,2.237,0.604,2.409,1.822c0.154,1.088-0.539,1.937-1.47,2.27   c0.15-0.095,0.284-0.226,0.366-0.367c0.072-0.124-0.07-0.253-0.19-0.19c-0.081,0.04-0.16,0.083-0.235,0.132   c-0.149,0.148-0.306,0.107-0.47-0.122C7.65,27.29,7.505,27.121,7.383,27.186z M7.308,28.648c-0.333,0.404-0.602,0.843-0.82,1.304   c-0.003-0.002-0.002-0.006-0.005-0.008c-0.53-0.395-0.406-0.926-0.148-1.397C6.642,28.619,6.967,28.658,7.308,28.648z    M7.825,21.272c0.025,0.307,0.088,0.609,0.168,0.907c-0.316-0.102-0.644,0.056-0.864,0.291c-0.252,0.268-0.268,0.513-0.218,0.838   c-0.334,0.021-0.64,0.123-0.916,0.278c-0.155-1.161,0.589-2.109,1.673-2.47c0.178-0.059,0.163-0.37-0.047-0.349   c-1.396,0.144-2.328,1.696-2.007,3.017c0.005,0.022,0.024,0.027,0.034,0.044c-0.155,0.126-0.292,0.276-0.419,0.435   c-0.199-2.141,0.872-4.027,2.814-4.988c0.209-0.104,0.06-0.472-0.161-0.382c-1.524,0.616-2.579,2.015-2.894,3.579   c0.181-2.304,1.332-4.269,3.78-5.116C8.144,18.631,7.789,20.819,7.825,21.272z M8.053,22.393c0.144,0.459,0.344,0.902,0.601,1.308   c-0.421-0.214-0.895-0.326-1.377-0.286c-0.015-0.063-0.057-0.119-0.142-0.124c0.095-0.468,0.493-0.69,0.889-0.87   C8.039,22.414,8.043,22.402,8.053,22.393z M9.919,25.081c0.29,0.213,0.609,0.38,0.942,0.515c-0.122,0.381-0.36,0.676-0.793,0.748   c0.027-0.189,0.035-0.385,0.019-0.588C10.068,25.519,10.003,25.296,9.919,25.081z M10.013,26.567   c0.506-0.008,1.037-0.366,1.148-0.855c0.17,0.054,0.347,0.093,0.525,0.125c-0.114,0.311-0.266,0.58-0.571,0.809   c-0.37,0.277-0.8,0.399-1.25,0.362C9.926,26.866,9.977,26.72,10.013,26.567z M12.098,25.881c0.105,0.008,0.207,0.024,0.315,0.023   c0.092,0.243,0.203,0.479,0.328,0.709c-0.796,1.214-2.051,1.423-3.377,1.13c0.138-0.149,0.266-0.308,0.368-0.485   C10.66,27.5,11.915,26.861,12.098,25.881z M13.475,20.937c0.124,0.132,0.238,0.277,0.373,0.396   c-1.568,2.497-0.356,6.931,3.014,7.095c0.003,0.216,0.032,0.43,0.055,0.644c-2.543-0.422-4.018-2.253-4.272-4.369   c0.038-0.027,0.077-0.046,0.114-0.079c0.129-0.115,0.009-0.308-0.143-0.3C12.561,23.202,12.834,22.02,13.475,20.937z    M12.522,20.363c-0.078-0.249-0.077-0.496-0.016-0.733c0.006,0.001,0.011,0.003,0.017,0.005c0.202,0.385,0.45,0.732,0.721,1.056   c-0.088,0.106-0.155,0.217-0.233,0.326C12.813,20.833,12.622,20.68,12.522,20.363z M16.013,19.805   c-2.06-1.592-2.731-5.837,0.777-6.145c0.017-0.001,0.023-0.015,0.038-0.019c-0.074,0.24-0.133,0.483-0.158,0.729   c-2.51-0.023-3.176,3.63-0.802,4.525c0.042,0.016,0.073-0.003,0.095-0.031c0.066,0.313,0.181,0.614,0.345,0.891   c-0.015,0.01-0.032,0.015-0.042,0.034c-0.214,0.419-0.325,0.843-0.389,1.265c-0.005-0.004-0.005-0.01-0.011-0.013   c-1.739-0.858-2.822-2.668-2.437-4.638c0.167-0.851,0.571-1.535,1.109-2.093c-1.272,1.632-0.762,4.612,1.319,5.695   C15.979,20.067,16.132,19.898,16.013,19.805z M19.913,10.291c-0.249,0.119-0.494,0.252-0.729,0.406   c-0.655-0.857-2.036-0.619-2.376,0.397c-0.233,0.001-0.462,0.033-0.69,0.069C16.88,9.78,18.582,9.334,19.913,10.291z    M15.736,11.239c-0.43,0.104-0.841,0.275-1.231,0.487c-0.314-1.25,2.675-2.287,3.446-2.4c1.215-0.179,2.181,0.133,3.252,0.555   c-0.261,0.05-0.522,0.117-0.78,0.21C18.827,8.716,16.448,9.301,15.736,11.239z M22.402,10.246c-0.09,0.347-0.149,0.702-0.161,1.059   c-1.259-0.164-2.579,0.287-3.442,1.233c-0.716,0.785-1.387,2.262-0.86,3.298c-0.235,0.055-0.46,0.143-0.672,0.255   c-0.008-0.02-0.009-0.04-0.016-0.06c0.166,0.007,0.285-0.237,0.106-0.313c-0.071-0.03-0.141-0.048-0.21-0.066   c-0.294-1.376,0.411-2.914,1.392-3.864C19.664,10.698,20.902,10.387,22.402,10.246z M31.648,9.851   c3.867-1.756,7.864,0.369,8.498,4.401c-0.305-0.194-0.625-0.366-0.969-0.491c-0.001-0.007,0.005-0.011,0.004-0.018   c-0.538-3.214-3.814-3.894-6.584-3.285c-0.354-0.319-0.79-0.543-1.284-0.6c-0.008-0.029-0.021-0.055-0.039-0.076   c0.057-0.079,0.079-0.186-0.005-0.279c-1.472-1.628-4.037-2.049-5.83-0.671c-1.122,0.862-2.679,3.752-1.11,4.865   c0.005,0.003,0.012-0.003,0.017,0c-0.086,0.151-0.153,0.313-0.223,0.473c-3.587-4.72,5.131-9.406,8.209-4.981   c-0.282,0.113-0.563,0.241-0.839,0.401C31.324,9.689,31.474,9.929,31.648,9.851z M45.282,15.654   c-1.136-1.845-3.002-3.063-5.152-3.269c-0.147-0.329-0.327-0.636-0.525-0.928c3.362-0.333,5.763,1.673,6.836,4.754   c-0.383-0.143-0.774-0.266-1.177-0.345C45.304,15.8,45.321,15.717,45.282,15.654z M44.671,15.765   c-0.304-0.033-0.61-0.056-0.919-0.05c0.021-0.03,0.033-0.066,0.014-0.111c-0.495-1.219-2.062-2-3.265-2.287   c-0.012-0.003-0.019,0.005-0.03,0.005c-0.064-0.242-0.142-0.476-0.233-0.704c0.843,0.167,1.655,0.451,2.393,0.905   c0.426,0.262,0.824,0.572,1.183,0.921c0.217,0.211,0.413,0.436,0.599,0.675c0.095,0.111,0.182,0.229,0.26,0.352   c0.008,0.031,0.028,0.036,0.041,0.056c-0.054,0.034-0.093,0.092-0.073,0.169C44.647,15.726,44.661,15.741,44.671,15.765z    M37.768,40.718c0.434,0.114,0.891-0.104,1.124-0.458c0.425,0.376,1.018,0.55,1.591,0.528c-0.48,0.642-1.047,1.152-1.951,1.131   c-1.153-0.028-2.004-0.988-2.109-2.091c0.202,0.03,0.411,0.045,0.634,0.028C37.104,40.248,37.333,40.605,37.768,40.718z    M37.328,39.814c0.409-0.073,0.763-0.215,1.062-0.412c0.007,0.091,0.021,0.18,0.054,0.255c0.044,0.1,0.101,0.191,0.161,0.279   c-0.173,0.264-0.432,0.456-0.783,0.367C37.579,40.24,37.411,40.043,37.328,39.814z M37.246,39.192   c-0.036-0.017-0.077-0.011-0.103,0.024c-0.006,0.001-0.011,0.003-0.017,0.004c-1.071,0.143-2.172-0.565-2.455-1.622   c-0.307-1.144,0.36-2.219,1.336-2.761c0.012-0.007,0.014-0.019,0.022-0.027c0.468,0.003,0.935-0.04,1.4-0.125   c0.959,0.395,1.727,1.232,1.684,2.335C39.072,38.066,38.261,38.994,37.246,39.192z M29.359,43.344   c0.009-0.021,0.009-0.043,0.007-0.064c0.54,0.066,1.082,0.093,1.611,0.094c-0.05,0.079-0.093,0.162-0.148,0.249   c-0.127,0.199-0.303,0.371-0.504,0.496c-0.279,0.174-0.587,0.25-0.901,0.236c-0.213-0.198-0.455-0.377-0.74-0.509   C28.975,43.776,29.234,43.621,29.359,43.344z M28.023,43.617c-0.426-0.1-0.871-0.124-1.284-0.045   c0.124-0.189,0.236-0.389,0.332-0.605c0.033-0.074,0.029-0.144,0.009-0.207c0.631,0.231,1.319,0.387,2.019,0.488   C28.743,43.483,28.441,43.664,28.023,43.617z M30.513,44.439c0.345-0.192,0.834-0.63,0.79-1.066c0.409-0.01,0.8-0.043,1.177-0.089   c-0.152,0.554-0.326,1.028-0.805,1.462c-0.446,0.404-0.999,0.654-1.583,0.707c-0.086-0.274-0.201-0.539-0.369-0.774   C29.996,44.658,30.265,44.577,30.513,44.439z M24.386,39.094c0.294,0.012,0.589,0.012,0.885-0.012   c0.558,3.24,6.754,3.959,8.477,1.412c0.015-0.023,0.007-0.045,0.013-0.068c0.019-0.001,0.036,0.001,0.055-0.001   c-0.131,0.682-0.063,1.386,0.153,2.051C30.997,43.008,24.877,43.367,24.386,39.094z M26.733,39.015   c0.908,1.154,3.193,1.956,4.439,0.841c0.569,0.344,1.231,0.55,1.982,0.582c-1.149,1.022-2.481,1.225-4.03,0.896   c-1.331-0.283-3.112-0.805-3.534-2.275c0.378-0.048,0.756-0.12,1.128-0.233C26.692,38.884,26.683,38.952,26.733,39.015z    M18.544,35.754c-0.312,0.094-0.631,0.041-0.886-0.152c0.022-0.135,0.045-0.272,0.035-0.406c0.353-0.049,0.704-0.125,1.049-0.251   c0.063,0.186,0.142,0.357,0.218,0.531C18.848,35.594,18.729,35.698,18.544,35.754z M19.18,35.93   c0.116,0.215,0.243,0.419,0.38,0.614c-0.034-0.012-0.069-0.02-0.108-0.009c-0.38,0.111-0.693,0.267-1.103,0.256   c-0.378-0.01-0.718-0.132-1.031-0.325c0.111-0.181,0.207-0.374,0.271-0.575C18.027,36.178,18.758,36.226,19.18,35.93z    M21.914,30.523c0.024,0.048,0.067,0.091,0.134,0.118c1.562,0.616,1.712,2.55,0.338,3.479c-0.874,0.591-2.179,0.611-3.092,0.086   C17.207,33.007,19.721,29.513,21.914,30.523z M17.932,33.356c-0.701,0.396-2.404-0.192-2.942-0.409   c-0.824-0.332-2.389-1.081-2.538-2.113c0.17-0.005,0.341-0.007,0.511-0.027c0.9,1.436,3.382,2.767,4.967,1.611   c0.022-0.016,0.034-0.041,0.047-0.064C17.891,32.691,17.872,33.031,17.932,33.356z M17.84,32.083   c-0.825,0.054-1.512,0.276-2.357,0.077c-0.872-0.205-1.614-0.702-2.172-1.392c0.31-0.057,0.616-0.138,0.915-0.251   c0.005,0.009,0.001,0.018,0.008,0.027c0.669,0.847,2.372,1.418,3.283,0.592c0.156,0.311,0.342,0.606,0.567,0.875   c-0.033,0.086-0.057,0.174-0.082,0.261C18.012,32.175,17.964,32.075,17.84,32.083z M17.096,30.015   c0.066,0.253,0.154,0.498,0.251,0.739c-0.451,0.156-0.824,0.355-1.34,0.33c-0.579-0.027-1.108-0.281-1.513-0.688   c0.258-0.114,0.516-0.234,0.759-0.393c0.07,0.069,0.144,0.131,0.208,0.176C15.906,30.494,16.961,30.78,17.096,30.015z    M15.602,29.761c0.147-0.113,0.291-0.232,0.429-0.364c0.013-0.012,0.01-0.028,0.018-0.041c0.302,0.099,0.614,0.182,0.943,0.233   c0.019,0.097,0.048,0.192,0.071,0.288c-0.05-0.047-0.129-0.069-0.185-0.029C16.38,30.2,16.009,30.033,15.602,29.761z    M15.802,16.587c0.224-0.442,0.671-0.603,1.125-0.582c0.034,0.078,0.057,0.157,0.098,0.234c-0.544,0.365-0.943,0.926-1.077,1.623   C15.7,17.492,15.601,16.983,15.802,16.587z M15.935,18.7c-1.848-1.128-1.332-3.571,0.722-3.936   c0.004,0.278,0.032,0.557,0.111,0.832c-1.22,0.014-1.968,1.709-0.86,2.533C15.892,18.323,15.907,18.513,15.935,18.7z    M17.289,16.584c0.054-0.002,0.104-0.034,0.117-0.087c0.446-0.311,0.986-0.496,1.537-0.486c0.02,0.019,0.037,0.04,0.061,0.056   c0.068,0.044,0.175,0.045,0.243,0c0.038-0.025,0.062-0.048,0.091-0.072c0.83,0.17,1.741,0.44,2.208,1.096   c-0.012,0.035-0.013,0.074,0.02,0.112c0.035,0.04,0.079,0.08,0.119,0.12c0.112,0.233,0.184,0.501,0.179,0.827   c-0.01,0.705-0.35,1.353-0.853,1.839c-0.077-0.007-0.144,0.047-0.143,0.119c-0.173,0.148-0.364,0.271-0.561,0.381   c-0.008-0.008-0.017-0.015-0.025-0.023c-0.09-0.091-0.257,0.028-0.186,0.138c-0.28,0.128-0.575,0.212-0.874,0.242   c-1.404,0.137-2.802-0.975-2.844-2.435C16.356,17.662,16.734,17.018,17.289,16.584z M23.675,16.496   c0.002,0.081,0.002,0.161,0.005,0.243c-0.796-0.101-1.494-0.357-2.109-0.837c0.17-0.44,0.555-0.73,0.988-0.792   C22.154,15.754,23.026,16.506,23.675,16.496z M22.675,15.099c0.349-0.016,0.72,0.113,1.031,0.441   c0.008,0.008,0.019,0.005,0.028,0.012c-0.028,0.187-0.047,0.376-0.059,0.566c-0.302-0.049-0.564-0.145-0.749-0.422   c-0.121-0.182-0.146-0.395-0.237-0.589C22.686,15.101,22.679,15.103,22.675,15.099z M23.74,17.189   c0.026,0.163,0.064,0.319,0.103,0.476c-0.305,0.008-0.603,0.05-0.921-0.02c-0.271-0.059-0.519-0.173-0.755-0.31   c-0.141-0.374-0.38-0.69-0.688-0.943c0.001-0.041,0.018-0.073,0.021-0.113C22.107,16.84,22.904,17.2,23.74,17.189z M41.321,16.432   c0.014-0.004,0.028-0.005,0.042-0.01c0.046,0.075,0.103,0.135,0.147,0.213c-0.38-0.081-0.768-0.12-1.156-0.105   c-1.198-2.518-4.197-2.596-6.47-1.636c-0.051-0.101-0.085-0.215-0.133-0.318c2.849-1.509,5.782-0.878,7.469,1.638   C41.125,16.297,41.178,16.476,41.321,16.432z M35.856,17.494c0.304-0.094,0.592-0.101,0.896-0.006   c0.247,0.077,0.423,0.246,0.645,0.358c-0.17,0.183-0.33,0.384-0.477,0.608c-0.701-0.492-1.303-1.05-1.82-1.668   c1.071-0.291,2.1-0.15,3.066,0.427c-0.203,0.135-0.399,0.286-0.583,0.462c-0.298-0.628-1.264-0.64-1.81-0.379   C35.66,17.348,35.739,17.53,35.856,17.494z M39.979,30.001c0.008-0.023-0.006-0.04-0.005-0.061   c0.293,0.306,0.626,0.549,0.982,0.744c-0.037,0.013-0.074,0.027-0.103,0.065c-2.702,3.535-7.393,3.498-9.738-0.312   c0.213-0.041,0.425-0.078,0.641-0.153c0.191,0.096,0.391,0.172,0.595,0.238c-0.055,0.023-0.095,0.076-0.068,0.144   C33.79,34.409,38.743,33.336,39.979,30.001z M28.499,33.754c-1.967-0.953-2.609-2.937-1.589-4.741   c0.204,0.202,0.411,0.401,0.64,0.569c-0.896,1.193-0.383,3.136,0.963,3.767c0.004,0.002,0.007-0.001,0.011,0.001   C28.511,33.483,28.506,33.619,28.499,33.754z M28.505,34.765c-0.014-0.009-0.025-0.021-0.044-0.023   c-2.962-0.331-4.127-5.132-2.781-7.424c0.251,0.493,0.559,0.955,0.919,1.367c-1.316,1.858-0.508,4.638,1.815,5.276   c0.027,0.007,0.051,0.001,0.072-0.009C28.478,34.222,28.488,34.494,28.505,34.765z M27.173,28.586   c0.019-0.025,0.029-0.052,0.048-0.077c0.129-0.17-0.149-0.376-0.293-0.226c-0.005,0.006-0.009,0.012-0.015,0.017   c-0.385-0.44-0.703-0.94-0.946-1.472c0.005-0.075-0.025-0.14-0.081-0.183c-0.715-1.713-0.618-3.726,0.809-5.208   c0.203,0.123,0.41,0.239,0.625,0.343c-1.025,1.223-1.167,2.902-0.505,4.357c0.559,1.229,2.304,3.151,3.811,3.281   c0.067,0.084,0.132,0.17,0.212,0.246c0.145,0.139,0.315,0.251,0.483,0.364C29.717,30.299,28.245,29.66,27.173,28.586z    M19.895,22.351c0.507,0.134,1.241,0.04,1.51-0.47c0.41,0.298,0.867,0.552,1.339,0.738c-0.946,0.439-1.868,0.793-2.968,0.471   c-0.991-0.29-1.69-1.037-1.981-1.99c0.257,0.112,0.524,0.201,0.805,0.233c0.077,0.009,0.153,0.004,0.229,0.006   C18.991,21.849,19.356,22.208,19.895,22.351z M19.081,21.344c0.457-0.029,0.901-0.168,1.31-0.382c0.213,0.243,0.47,0.477,0.744,0.7   c-0.373,0.199-0.679,0.358-1.128,0.279C19.646,21.877,19.281,21.661,19.081,21.344z M23.31,22.806   c0.686,0.177,1.382,0.182,2.006-0.08c-0.01,0.026-0.015,0.053-0.025,0.079c-0.093-0.042-0.212-0.027-0.277,0.083   c-1.929,3.263-7.535,1.165-7.938-2.226c0.087,0.069,0.174,0.138,0.267,0.198C17.724,23.657,21.282,24.509,23.31,22.806z    M22.836,22.092c-0.829-0.271-1.537-0.709-2.175-1.275c0.177-0.113,0.348-0.236,0.504-0.378c1.271,1.165,3.467,1.759,5.026,0.892   c-0.322,0.35-0.559,0.737-0.749,1.14c-0.021-0.038-0.049-0.069-0.094-0.078C24.506,22.239,23.681,22.368,22.836,22.092z    M23.523,20.465c0.511,0.077,1.206,0.034,1.665-0.286c0.229,0.258,0.486,0.491,0.755,0.711c-1.693,0.335-3.087,0.351-4.557-0.669   c0.188-0.203,0.358-0.422,0.494-0.661C22.303,20.046,22.873,20.366,23.523,20.465z M22.019,19.313   c0.085-0.186,0.153-0.379,0.2-0.579c0.27,0.267,0.605,0.46,0.989,0.543c0.356,0.077,0.896,0.085,1.229-0.141   c0.129,0.229,0.275,0.445,0.431,0.653c-0.395,0.121-0.751,0.279-1.224,0.248C23.02,19.997,22.474,19.726,22.019,19.313z    M25.908,11.811c0.058-0.587,0.51-1.141,1.135-1.141c0.448,0,0.687,0.266,0.999,0.508c-1.045,0.118-1.96,0.558-2.68,1.207   c-0.401-2.25,2.207-3.913,3.972-2.277c-0.387,0.227-0.725,0.538-0.967,0.922c-0.152-0.611-1.022-0.883-1.577-0.763   c-0.718,0.155-1.178,0.826-1.127,1.544C25.674,11.97,25.893,11.968,25.908,11.811z M28.54,14.082   c-0.003,0.004-0.007,0.003-0.01,0.007c-0.413,0.67-0.232,2.133,0.755,2.195c0.01,0.479,0.09,0.952,0.238,1.401   c-1.906-0.454-2.614-2.643-1.334-4.214C28.284,13.686,28.396,13.894,28.54,14.082z M28.709,14.273   c0.245,0.271,0.533,0.503,0.859,0.666c-0.077,0.007-0.15,0.04-0.174,0.142c-0.065,0.285-0.09,0.574-0.104,0.862   c-0.214-0.185-0.43-0.324-0.563-0.61C28.565,14.983,28.552,14.62,28.709,14.273z M28.048,13.234   c-1.88,1.742-0.725,4.714,1.703,4.989c0.127,0.261,0.272,0.514,0.454,0.746c-0.088,0.16-0.157,0.322-0.222,0.486   c-1.45-0.334-2.754-0.972-3.261-2.52c-0.507-1.545,0.116-3.086,1.233-4.161c0.019-0.019,0.024-0.041,0.027-0.064   c0.025,0.171,0.055,0.342,0.11,0.506C28.076,13.223,28.062,13.221,28.048,13.234z M29.786,15.048   c0.164,0.064,0.335,0.113,0.511,0.142c0.002,0,0.003,0,0.005,0c-0.135,2.916,2.428,5.298,5.333,4.458   c-0.073,0.076-0.129,0.166-0.195,0.248c-1.424,0.241-2.747,0.415-4.03-0.447c-0.54-0.363-0.948-0.857-1.23-1.416   c0-0.066-0.029-0.128-0.078-0.177c-0.367-0.824-0.473-1.769-0.289-2.659C29.826,15.138,29.809,15.09,29.786,15.048z M36.083,19.255   c-0.027,0.019-0.051,0.043-0.077,0.063c-0.026-0.017-0.06-0.025-0.1-0.015c-2.743,0.626-5.329-1.294-5.228-4.097   c0.253,0,0.505-0.024,0.748-0.094C31.147,17.597,33.768,19.471,36.083,19.255z M35.599,13.337   c-0.568-0.563-1.326-0.783-2.092-0.677c0.01-0.131,0.001-0.261-0.009-0.391c0.64-0.229,1.312-0.208,1.934,0.074   c0.296,0.135,0.57,0.317,0.797,0.552c0.174,0.181,0.278,0.377,0.491,0.51c-0.369,0.021-0.738,0.061-1.101,0.14   C35.655,13.482,35.667,13.404,35.599,13.337z M35.338,13.598c0.01,0.009,0.021,0.005,0.031,0.012   c-0.286,0.074-0.57,0.156-0.843,0.267c-0.263-0.344-0.718-0.512-1.148-0.601c0.043-0.112,0.074-0.229,0.099-0.348   C34.167,12.872,34.832,13.104,35.338,13.598z M34.246,13.996c-0.208,0.096-0.411,0.199-0.606,0.316   c-0.119-0.273-0.25-0.537-0.346-0.828c0.001-0.002,0.001-0.004,0.002-0.006C33.641,13.619,33.923,13.824,34.246,13.996z    M33.499,15.139c0,0.044,0.018,0.087,0.054,0.113c0.726,1.412,1.867,2.606,3.242,3.405c-0.056,0.096-0.122,0.178-0.174,0.281   c-0.092,0.009-0.184,0-0.277,0.005c-1.79-1.006-3.091-2.578-3.695-4.566c0.138-0.13,0.258-0.275,0.37-0.427   C33.143,14.361,33.309,14.756,33.499,15.139z M35.807,18.952c-0.989-0.043-1.945-0.35-2.705-1.036   c-0.902-0.814-1.135-1.812-1.365-2.921c0.217-0.091,0.422-0.209,0.613-0.347C32.878,16.5,34.127,18.059,35.807,18.952z    M38.818,24.863c0.003-0.02-0.009-0.038-0.013-0.057c0.362-0.118,0.691-0.314,0.988-0.553c-0.38,0.616-0.608,1.187-1.284,1.57   c-0.764,0.433-1.626,0.399-2.409,0.068c0.223-0.092,0.444-0.203,0.66-0.344C37.436,26.056,38.688,25.802,38.818,24.863z    M37.021,25.338c0.148-0.114,0.299-0.216,0.441-0.356c0.026-0.025,0.022-0.053,0.033-0.08c0.248,0.041,0.5,0.058,0.756,0.03   c0.035-0.004,0.067-0.015,0.102-0.02C38.06,25.35,37.512,25.607,37.021,25.338z M35.372,26.078c0.128-0.024,0.256-0.04,0.383-0.078   c0.007,0.006,0.006,0.015,0.015,0.021c0.849,0.555,1.9,0.692,2.835,0.253c0.621-0.292,1.257-0.894,1.461-1.585   c0.104,0.28,0.267,0.531,0.466,0.754C39.249,27.116,37.014,27.291,35.372,26.078z M40.875,25.765   c0.132,0.106,0.276,0.198,0.425,0.282c-0.598,0.818-1.394,1.438-2.416,1.698c-0.682,0.174-1.374,0.164-2.057,0.002   c-0.309-0.074-2.066-0.606-1.913-1.251c0.041-0.171-0.195-0.227-0.258-0.071c-0.005,0.013-0.005,0.025-0.01,0.039   c-0.026-0.103-0.052-0.206-0.067-0.316c0.176,0.005,0.353,0.004,0.53-0.016C36.781,27.879,39.382,27.619,40.875,25.765z    M30.25,19.824c0.062-0.061,0.08-0.158,0.046-0.23c0.025-0.136,0.043-0.273,0.08-0.406c0.155,0.172,0.322,0.336,0.509,0.485   c0.031,0.024,0.071,0.039,0.103,0.062c-0.763,3.378,2.775,6.214,5.926,5.02c0.018,0.007,0.037,0.008,0.055,0.014   C33.554,27.712,29.753,23.49,30.25,19.824z M30.884,24.437c-0.229,0.33-0.291,0.903-0.048,1.257   c-0.233,0.181-0.406,0.419-0.543,0.679c-0.62-0.991-0.558-2.148,0.011-3.159c0.424,0.812,1.047,1.527,1.788,2.048   c-0.364,0.009-0.675,0.098-0.944,0.235c-0.13-0.299-0.226-0.547-0.049-0.934C31.166,24.417,30.976,24.303,30.884,24.437z    M31.241,19.886c0.161,0.1,0.31,0.212,0.487,0.293c-0.014,1.003,0.412,1.916,1.174,2.584c0.62,0.544,1.645,1.073,2.515,0.91   c0.244,0.308,0.542,0.572,0.874,0.78C33.44,24.925,31.159,22.888,31.241,19.886z M34.814,22.476   c0.062,0.259,0.17,0.501,0.296,0.733c-0.666-0.095-1.251-0.21-1.847-0.7c-0.677-0.555-1.107-1.347-1.228-2.207   c0.268,0.1,0.544,0.183,0.827,0.233c-0.051,0.014-0.096,0.051-0.09,0.115C32.852,21.605,33.798,22.605,34.814,22.476z    M32.979,20.556c0.236,0.035,0.474,0.056,0.709,0.051c0.194,0.4,0.607,0.82,1.064,0.88c-0.025,0.197-0.031,0.396-0.014,0.597   c-0.837-0.147-1.503-0.547-1.714-1.467C33.017,20.588,32.999,20.571,32.979,20.556z M34.828,21.081   c-0.314-0.106-0.581-0.224-0.803-0.494c0.408-0.045,0.804-0.153,1.16-0.348C35.026,20.501,34.908,20.786,34.828,21.081z    M27.979,11.953c-0.04,0.227-0.041,0.453-0.016,0.676c-0.032-0.05-0.093-0.081-0.152-0.039c-2.947,2.085-1.729,7.304,2.034,7.288   c-0.095,0.346-0.14,0.695-0.145,1.043c-5.105-0.459-5.818-6.472-1.716-8.983C27.982,11.944,27.98,11.948,27.979,11.953z    M30.006,22.558c0.026,0.072,0.067,0.139,0.096,0.21c-0.984,1.092-0.882,2.839,0.052,3.923c-0.099,0.281-0.136,0.584-0.14,0.892   c-1.221-1.549-2.103-3.374-0.673-5.127C29.56,22.498,29.782,22.534,30.006,22.558z M30.049,28.042   c0.046,0.327,0.145,0.646,0.295,0.942c-2.343-1.482-4.89-4.329-2.586-6.996c0.339,0.138,0.688,0.259,1.046,0.351   C27.185,24.034,28.475,26.724,30.049,28.042z M31.05,28.919c-0.89-1.167-0.342-2.998,1.111-3.408   c0.066-0.019,0.093-0.078,0.088-0.134c0.639,0.415,1.351,0.69,2.086,0.755c-0.052,1.008,0.439,1.811,1.168,2.385   c-0.035,0.03-0.062,0.07-0.065,0.123C35.307,30.947,31.96,30.112,31.05,28.919z M35.798,28.72c0.367,0.24,0.777,0.424,1.2,0.559   c-0.242,0.698-1.021,1.057-1.694,0.818C35.668,29.758,35.878,29.293,35.798,28.72z M35.062,30.288   c0.842,0.481,2.032,0.056,2.317-0.897c0.19,0.045,0.382,0.079,0.572,0.1c0.066,0.007,0.129,0.004,0.194,0.009   c-0.768,1.54-2.555,2.093-4.116,1.189c-0.014-0.008-0.025-0.002-0.038-0.005C34.382,30.627,34.756,30.494,35.062,30.288z    M35.188,27.556c0.747,0.491,1.994,0.748,2.458,0.771c1.681,0.084,3.154-0.75,4.097-2.076c0.279,0.104,0.572,0.173,0.87,0.194   c0.028,0.002,0.054-0.003,0.082-0.002c-0.812,1.39-2.044,2.362-3.712,2.523c-0.116,0.011-0.235,0.012-0.354,0.014   c-0.063-0.025-0.13-0.027-0.192,0.005C37.219,28.962,35.937,28.483,35.188,27.556z M44.078,26.16   c0.424-0.199,0.799-0.495,1.099-0.857c0.423,0.759,0.254,1.705-0.447,2.292c-0.746,0.625-1.775,0.657-2.694,0.479   c0.149-0.144,0.292-0.296,0.425-0.457c0.506,0.181,1.026,0.142,1.398-0.302C44.131,26.989,44.19,26.552,44.078,26.16z    M42.557,27.495c0.252-0.32,0.482-0.661,0.666-1.038c0.007-0.014-0.001-0.025,0.003-0.039c0.18-0.026,0.355-0.072,0.525-0.129   C43.89,26.978,43.321,27.666,42.557,27.495z M41.762,28.309c1.195,0.366,2.704,0.329,3.563-0.711c0.6-0.726,0.77-1.955,0.113-2.69   c0.141-0.232,0.255-0.48,0.338-0.743c1.083,1.249,0.995,3.014-0.24,4.236c-1.312,1.297-3.246,1.292-4.838,0.599   C41.077,28.814,41.436,28.584,41.762,28.309z M45.089,20.123c0.789,0.24,1.353,1.013,1.303,1.852c0,0.003,0.003,0.004,0.003,0.008   c-0.325-0.191-0.677-0.354-1.059-0.475c-0.023-0.007-0.037,0.007-0.058,0.006c-0.03-0.041-0.051-0.086-0.083-0.125   c0.011-0.026,0.033-0.042,0.033-0.075C45.234,20.89,45.175,20.498,45.089,20.123z M45.258,24.146   c-0.471,1.356-1.972,1.936-3.233,1.676c0.006-0.01,0.013-0.019,0.019-0.029c0.15-0.262-0.253-0.497-0.404-0.236   c-0.027,0.047-0.063,0.086-0.092,0.132c-0.187-0.076-0.364-0.174-0.526-0.294c-0.026-0.045-0.061-0.079-0.112-0.101   c-0.376-0.322-0.657-0.77-0.757-1.364c0.54-0.581,0.877-1.345,0.892-2.137c0.084,0.033,0.19,0.01,0.227-0.103   c0.473-1.457,2.377-1.093,3.236-0.32C45.292,22.074,45.606,23.143,45.258,24.146z M41.368,20.708   c0.017,0.031,0.041,0.045,0.065,0.056c-0.172,0.169-0.318,0.369-0.412,0.622c-0.078-0.653-0.359-1.203-0.765-1.629   C40.733,19.862,41.114,20.232,41.368,20.708z M39.968,19.502c-0.202-0.163-0.431-0.291-0.67-0.401   c1.327-0.566,2.71-0.141,3.421,1.135c-0.393,0.027-0.771,0.136-1.079,0.354C41.503,19.824,40.695,19.445,39.968,19.502z    M43.173,20.255c-0.714-1.658-2.707-2.311-4.205-1.29c-0.361-0.122-0.749-0.172-1.145-0.166c0.847-0.67,2.174-0.574,3.184-0.418   c1.355,0.21,2.143,0.803,2.663,1.967C43.506,20.304,43.34,20.273,43.173,20.255z M38.707,19.181   c-0.003,0.082,0.096,0.165,0.182,0.114c0.01-0.006,0.02-0.008,0.029-0.014c0.188,0.098,0.371,0.208,0.537,0.34   c-0.005,0.002-0.011,0.003-0.016,0.005c-0.101,0.046-0.029,0.216,0.076,0.18c0.04-0.014,0.076-0.017,0.115-0.027   c0.423,0.387,0.746,0.875,0.87,1.422c0.328,1.449-0.816,3.039-2.285,3.2c-0.334,0.037-0.666,0.002-0.982-0.087   c-0.03-0.026-0.066-0.034-0.108-0.036c-0.945-0.308-1.718-1.122-1.865-2.139c-0.177-1.224,0.535-2.181,1.512-2.757l0.002,0.001   c0.055,0.019,0.097-0.022,0.11-0.069c0.163-0.089,0.331-0.17,0.505-0.238c0.047,0.031,0.109,0.038,0.152-0.012   c0.042-0.05,0.092-0.085,0.138-0.129C38.027,18.951,38.376,19.037,38.707,19.181z M34.91,16.545   c-0.082-0.105-0.154-0.217-0.231-0.325c1.345-0.743,2.991-0.444,4.031,0.685c0.007,0.008,0.015,0.004,0.023,0.01   c-0.075,0.035-0.153,0.062-0.226,0.101c-0.012-0.039-0.028-0.079-0.069-0.108C37.408,16.173,36.063,16.058,34.91,16.545z    M34.542,16.027c-0.189-0.278-0.348-0.578-0.509-0.876c2.137-0.628,4.536-0.666,5.818,1.429c-0.266,0.041-0.53,0.099-0.786,0.191   c0.007-0.056-0.005-0.115-0.051-0.169C37.898,15.291,35.948,15.084,34.542,16.027z M38.076,13.482   c0.011-0.034,0.019-0.07,0.003-0.108c-0.37-0.881-1.202-1.566-2.063-1.951c-0.72-0.322-1.848-0.642-2.58-0.22   c-0.065,0.038-0.052,0.141,0.021,0.161c0.826,0.219,1.628,0.107,2.44,0.509c0.748,0.371,1.223,0.92,1.718,1.547   c-0.252-0.02-0.507-0.026-0.762-0.017c0.029-0.021,0.054-0.051,0.053-0.091c-0.005-0.635-0.823-1.127-1.348-1.331   c-0.69-0.267-1.416-0.249-2.096,0.025c-0.091-0.505-0.328-0.976-0.664-1.351c1.157,0.095,2.354-0.145,3.478,0.23   c1.275,0.426,2.098,1.47,2.422,2.727C38.494,13.559,38.287,13.514,38.076,13.482z M32.978,12.43c0.017,1.243-1.163,2.28-2.38,2.236   c-0.039-0.018-0.077-0.024-0.119-0.018c-1.133-0.115-2.034-1.246-1.995-2.362c0.047-1.359,1.396-2.218,2.65-2.153   c0.044,0.002,0.075-0.019,0.106-0.041C32.164,10.535,32.963,11.341,32.978,12.43z M29.797,9.889   c-0.929-1.024-2.534-1.317-3.708-0.517c-1.062,0.724-1.395,2.098-0.953,3.258c-0.219,0.226-0.411,0.475-0.586,0.737   c-0.333-0.162-0.406-1.472-0.351-1.744c0.084-0.416,0.238-0.839,0.441-1.211c0.428-0.784,1.137-1.463,1.99-1.764   c1.521-0.537,3.133-0.038,4.235,1.081C30.498,9.72,30.135,9.764,29.797,9.889z M28.155,11.434   c-0.024,0.059-0.056,0.113-0.076,0.174c-0.038-0.019-0.082-0.026-0.131-0.002c-2.14,1.051-3.663,3.314-3.228,5.768   c0.406,2.287,2.641,4.236,5,3.99c0.02,0.225,0.072,0.446,0.125,0.667c-2.583-0.393-4.961-1.92-5.539-4.63   C23.699,14.559,25.489,12.23,28.155,11.434z M24.244,18.742c-0.31,0.048-0.609,0.177-0.953,0.128   c-0.389-0.056-0.73-0.225-1.011-0.484c0.019-0.213,0.016-0.416-0.012-0.607c0.524,0.319,1.161,0.504,1.706,0.337   C24.048,18.336,24.148,18.538,24.244,18.742z M16.475,20.014c0.106,0.145,0.215,0.288,0.342,0.414   c-0.232,2.413,1.768,4.008,4.001,4.406c1.359,0.242,3.342,0.14,4.227-1.044c-0.076,0.515-0.064,1.042,0.009,1.565   C21.61,27.893,14.907,24.603,16.475,20.014z M22.812,34.533c0.19-0.141,0.37-0.296,0.523-0.482c0.013,0.02,0.019,0.042,0.046,0.057   c0.503,0.274,1.154,0.361,1.66,0.047c0.114,0.135,0.233,0.265,0.357,0.389C24.595,35.059,23.583,35.107,22.812,34.533z    M25.751,34.867c0.223,0.189,0.463,0.356,0.712,0.507c-1.537,0.904-3.384,0.896-4.81-0.314c0.326-0.083,0.642-0.201,0.928-0.374   C23.423,35.48,24.853,35.647,25.751,34.867z M23.534,33.847c-0.013-0.006-0.024,0.001-0.037-0.001   c0.307-0.46,0.446-1.001,0.427-1.528c0.229,0.552,0.527,1.067,0.877,1.535C24.363,33.981,23.997,34.047,23.534,33.847z    M22.519,30.308c-0.166-0.594,0.271-1.125,0.828-1.327c-0.031,0.704,0.027,1.42,0.191,2.115   C23.303,30.742,22.961,30.462,22.519,30.308z M22.27,30.235c-0.019-0.004-0.035-0.012-0.054-0.016   c-0.282-0.257-0.589-0.409-0.906-0.475c0.327-0.971,1.148-1.525,2.146-1.658l0,0c-0.036,0.212-0.083,0.421-0.101,0.638   C22.593,28.673,22.11,29.534,22.27,30.235z M23.504,27.793c-0.017-0.006-0.026-0.019-0.047-0.02   c-1.139-0.046-2.141,0.887-2.403,1.951c-0.243-0.016-0.489,0.021-0.731,0.091c0.071-0.206,0.122-0.423,0.218-0.62   c0.176-0.364,0.409-0.701,0.688-0.994c0.599-0.631,1.292-0.88,2.105-1.108c0.199-0.056,0.163-0.363-0.045-0.365   c0.201-0.033,0.401-0.072,0.591-0.13C23.71,26.979,23.593,27.382,23.504,27.793z M19.981,29.943   c-0.219,0.097-0.432,0.225-0.633,0.375c-0.248-1.387,0.115-2.607,1.227-3.57c0.055-0.047,0.063-0.107,0.054-0.167   c0.803,0.191,1.646,0.275,2.435,0.181c-0.805,0.09-1.592,0.566-2.13,1.145C20.506,28.369,19.903,29.241,19.981,29.943z    M17.583,25.139c-0.088,0.174-0.158,0.362-0.231,0.547c-0.224-0.433-0.423-0.801-0.446-1.236   C17.11,24.696,17.333,24.929,17.583,25.139z M17.938,25.414c0.106,0.075,0.212,0.152,0.324,0.22c0.08,0.049,0.18,0.088,0.265,0.135   c-0.007,0.008-0.017,0.012-0.024,0.021c-0.954,1.263-0.945,2.824-0.602,4.312c0.044,0.192,0.217,0.937,0.478,1.295   c-0.059,0.096-0.107,0.195-0.157,0.294C17.302,29.58,16.998,27.653,17.938,25.414z M18.15,28.686   c-0.023-0.974,0.187-1.858,0.776-2.649c0.013-0.018,0.017-0.035,0.024-0.052c0.403,0.188,0.83,0.361,1.291,0.493   c-1.208,0.895-1.765,2.66-1.155,4.059c-0.17,0.154-0.324,0.326-0.466,0.508C18.332,30.444,18.153,28.797,18.15,28.686z    M21.365,35.106c-0.001,0.032,0.008,0.066,0.036,0.097c1.395,1.549,3.958,1.815,5.57,0.441c0.289,0.133,0.597,0.234,0.916,0.312   c-2.395,2.011-5.367,1.542-7.279-0.802C20.861,35.159,21.115,35.149,21.365,35.106z M27.178,35.235   c-0.042-0.083-0.116-0.132-0.206-0.128c-2.792-1.727-4.112-5.599-2.589-8.682c0.28-0.132,0.543-0.295,0.778-0.503   c0.078,0.329,0.193,0.647,0.323,0.959c-1.814,2.424-0.498,8.126,2.978,8.069c0.025,0,0.041-0.012,0.056-0.023   c0.025,0.304,0.071,0.606,0.129,0.904C28.123,35.698,27.634,35.492,27.178,35.235z M28.562,33.044   c-1.082-0.761-1.277-2.136-0.689-3.248c0.104,0.065,0.205,0.134,0.312,0.191c-0.406,0.579-0.366,1.443,0.174,1.923   c0.1,0.089,0.281-0.028,0.196-0.151c-0.365-0.534-0.364-1.084-0.039-1.613c0.315,0.138,0.639,0.253,0.981,0.316   c-0.027,0.017-0.058,0.022-0.078,0.056C28.97,31.247,28.692,32.123,28.562,33.044z M29.669,31.015   c0.146,0.256,0.301,0.501,0.468,0.731c-1.51,2.438-0.594,6.748,2.074,8.061C28.988,38.561,28.07,34.049,29.669,31.015z    M29.16,37.451c0.16,0.362,0.356,0.696,0.572,1.011c-0.528,0.17-1.039,0.156-1.427-0.328c0.263-0.158,0.52-0.333,0.767-0.53   C29.13,37.558,29.154,37.505,29.16,37.451z M29.99,38.815c0.226,0.278,0.478,0.528,0.754,0.745   c-0.578,0.162-1.089,0.347-1.746,0.261c-0.796-0.103-1.474-0.469-2.023-1.051c-0.014-0.015-0.029-0.011-0.044-0.02   c0.371-0.126,0.738-0.277,1.092-0.468C28.375,38.918,29.38,39.273,29.99,38.815z M33.882,40.13   c-0.045-0.001-0.089-0.006-0.133-0.008c0.051-0.085,0.038-0.217-0.08-0.238c-3.323-0.61-4.502-4.99-3.222-7.729   c0.015,0.018,0.028,0.04,0.044,0.058c-0.277,2.81,0.782,6.276,3.986,6.692C34.193,39.29,34,39.704,33.882,40.13z M30.932,32.675   c0.236,0.231,0.481,0.449,0.74,0.643c-0.754,1.862,0.327,4.149,2.399,4.522c0.069,0.012,0.132-0.032,0.163-0.087   c0.083,0.329,0.216,0.647,0.414,0.931c-0.002,0.002-0.004-0.001-0.006,0c-0.014,0.017-0.024,0.035-0.038,0.051   c-0.012-0.039-0.034-0.074-0.079-0.087C31.72,37.847,30.955,35.271,30.932,32.675z M32.838,35.619   c0.171,0.64,0.64,1.203,1.297,1.348c-0.002,0.213,0.026,0.426,0.068,0.636c-0.009-0.007-0.009-0.017-0.021-0.022   c-1.725-0.759-2.529-2.257-2.154-3.994c0.307,0.202,0.624,0.384,0.953,0.536C32.721,34.551,32.719,35.173,32.838,35.619z    M34.325,35.943c0.001,0.001,0.003,0,0.004,0.001c-0.102,0.227-0.163,0.467-0.193,0.713c-0.42-0.273-0.737-0.655-0.864-1.158   c-0.119-0.468-0.011-0.811,0.133-1.194c0.181,0.07,0.364,0.138,0.549,0.193C33.755,34.971,33.964,35.619,34.325,35.943z    M34.372,34.613c0.354,0.083,0.712,0.149,1.075,0.18c-0.421,0.21-0.728,0.501-0.946,0.834   C34.313,35.277,34.318,34.97,34.372,34.613z M37.362,34.141c-0.123-0.027-0.203,0.036-0.25,0.117   c-1.218,0.187-2.454,0.028-3.609-0.433c-0.035-0.04-0.085-0.061-0.138-0.054c-0.416-0.177-0.816-0.407-1.204-0.666   c0.015-0.044,0.02-0.087,0.036-0.131c0.068-0.186-0.214-0.291-0.312-0.131c-0.008,0.014-0.011,0.03-0.02,0.044   c-0.337-0.25-0.658-0.536-0.965-0.848c-0.022-0.061-0.06-0.099-0.116-0.114c-0.065-0.069-0.124-0.148-0.187-0.219   c-0.018-0.054-0.057-0.098-0.107-0.126c-0.239-0.282-0.466-0.584-0.674-0.914c0.009-0.061-0.003-0.113-0.04-0.156   c0.345,0.04,0.701,0.042,1.065-0.006c1.973,4.124,8.033,4.674,10.348,0.444c0.027-0.049,0.026-0.094,0.018-0.134   c0.701,0.326,1.488,0.445,2.28,0.415c-0.076,0.876-0.878,1.362-1.684,1.021c0.162-0.185,0.325-0.367,0.473-0.572   c0.152-0.21-0.197-0.482-0.362-0.279c-1.237,1.528-2.794,2.446-4.412,2.789C37.455,34.172,37.412,34.152,37.362,34.141z    M41.056,32.999c0.203-0.177,0.403-0.361,0.592-0.563c0.942,0.622,2.198-0.083,2.151-1.217c0.396-0.036,0.79-0.114,1.173-0.229   C44.672,32.844,42.633,33.002,41.056,32.999z M45.335,30.863c0.187-0.069,0.367-0.156,0.546-0.243   c0.2,3.242-3.397,3.595-5.798,3.094c0.245-0.153,0.484-0.319,0.714-0.503C42.453,33.412,45.433,33.2,45.335,30.863z M39.833,33.852   c0.011,0.032,0.033,0.06,0.074,0.075c1.562,0.56,3.473,0.743,4.913-0.245c1.069-0.732,1.692-1.977,1.45-3.264   c0-0.003-0.004-0.003-0.004-0.006c0.293-0.171,0.569-0.367,0.824-0.584c0.9,2.051,0.019,4.335-2.115,5.276   c-1.991,0.878-4.076,0.276-5.769-0.934C39.418,34.073,39.628,33.969,39.833,33.852z M46.845,29.308   c0.008,0.013,0.011,0.027,0.019,0.041c-1.852,1.827-5.19,2.001-7.038,0.075c-0.087-0.091-0.259,0.032-0.179,0.138   c0.041,0.055,0.089,0.1,0.131,0.152c-0.094-0.019-0.193-0.002-0.239,0.101c-1.33,2.996-5.219,3.859-7.024,0.753   c-0.001-0.002-0.004-0.002-0.005-0.004c0.453,0.126,0.924,0.182,1.385,0.131c-0.073,0.049-0.102,0.166-0.006,0.233   c1.719,1.199,3.972,0.473,4.736-1.408c0.656-0.015,1.281-0.16,1.856-0.411c0.008,0.015,0.012,0.031,0.03,0.043   c1.801,1.246,4.363,0.894,5.726-0.84c1.135-1.443,1.042-3.494-0.363-4.683c0.053-0.524-0.047-1.038-0.252-1.509   c2.513,1.091,3.374,4.119,1.862,6.474c-0.105,0.164-0.221,0.318-0.345,0.464C46.974,28.945,46.72,29.102,46.845,29.308z    M46.663,22.159c0.08-0.024,0.152-0.077,0.158-0.183c0.056-1.08-0.746-2.009-1.798-2.13c-0.112-0.381-0.269-0.734-0.462-1.056   c0.911-0.697,2.554,1.036,2.963,1.676c0.608,0.95,0.797,2.028,0.631,3.134c-0.039,0.259,0.344,0.38,0.403,0.111   c0.329-1.489-0.156-3.06-1.195-4.167c-0.571-0.607-2.156-1.755-2.926-0.937c-0.403-0.604-0.942-1.082-1.548-1.432   c4.699-1.194,8.884,4.474,5.831,8.312C48.538,24.169,47.824,22.948,46.663,22.159z M44.756,20.945   c-0.212-0.178-0.44-0.339-0.694-0.458c-0.02-2.696-4.947-3.456-6.558-1.746c-0.019-0.008-0.035-0.02-0.062-0.017   c-0.155,0.013-0.304,0.052-0.451,0.092C39.335,15.605,44.505,16.75,44.756,20.945z M40.689,14.641   c-0.002-0.052-0.013-0.1-0.017-0.152c0.663,0.306,1.182,0.784,1.622,1.392c-0.185,0.042-0.37,0.086-0.555,0.143   C41.474,15.47,41.114,15.012,40.689,14.641z M40.637,14.174c-0.022-0.185-0.062-0.362-0.099-0.541   c0.581,0.174,1.125,0.423,1.62,0.776c0.533,0.381,0.879,0.898,1.355,1.327c-0.292,0.015-0.584,0.028-0.878,0.079   c0.002-0.033,0.008-0.065-0.011-0.102C42.226,14.932,41.466,14.415,40.637,14.174z M23.781,14.96   c0.017,0.015,0.035,0.014,0.052,0.02c-0.002,0.006-0.002,0.013-0.003,0.02c-0.856-0.764-2.228-0.316-2.576,0.637   c-0.022-0.022-0.047-0.036-0.069-0.058c-0.09-0.091-0.261,0.031-0.182,0.141c0.058,0.081,0.123,0.157,0.187,0.233   c-0.008,0.075-0.03,0.144-0.025,0.222c-0.241-0.149-0.51-0.263-0.792-0.35c0.376-1.159,1.606-1.864,2.796-1.545   C23.349,14.518,23.547,14.749,23.781,14.96z M20.099,15.754c-0.182-0.041-0.372-0.053-0.56-0.07   c0.014-0.05,0.027-0.106,0.042-0.171c0.117-0.532,0.215-0.956,0.582-1.377c0.641-0.735,1.5-0.948,2.435-0.901   c0.067,0.164,0.12,0.332,0.208,0.49C21.557,13.612,20.339,14.507,20.099,15.754z M20.227,13.382   c-0.337,0.262-0.623,0.589-0.826,0.965c-0.058,0.107-0.223,0.754-0.329,1.089c-0.078-0.019-0.158,0.025-0.2,0.087   c-0.054,0.08-0.067,0.163-0.059,0.242c-0.256-0.023-0.509,0.001-0.756,0.048c0.299-1.08,0.257-2.033,1.093-2.925   c0.827-0.883,1.938-1.163,3.105-1.105c0.023,0.347,0.07,0.694,0.172,1.032C21.661,12.645,20.836,12.909,20.227,13.382z    M16.957,13.277c-0.036-0.044-0.09-0.073-0.168-0.07c-0.46,0.02-0.864,0.117-1.214,0.275c0.514-0.316,1.08-0.565,1.667-0.752   C17.14,12.91,17.034,13.089,16.957,13.277z M15.88,22.215c0.013,0.088,0.036,0.174,0.055,0.261   c-0.043-0.02-0.092-0.027-0.134-0.001c-0.621,0.385-0.613,1.478-0.497,2.106c0.155,0.837,0.669,1.811,1.479,2.172   c0.173,0.077,0.356-0.122,0.211-0.273c-0.478-0.5-0.922-0.908-1.15-1.587c-0.1-0.297-0.159-0.608-0.17-0.921   c-0.008-0.203,0.005-0.406,0.039-0.607c0.013-0.226,0.116-0.412,0.307-0.556l0,0c0.136,0.439,0.341,0.858,0.605,1.248   c-0.154,0.67-0.038,1.527,0.562,1.911c0.016,0.01,0.03,0.007,0.045,0.01c-0.099,0.29-0.174,0.591-0.235,0.897   c-0.783-0.436-1.442-0.751-1.919-1.584c-0.351-0.612-0.887-2.691,0.112-3.126c0.182,0.065,0.369,0.118,0.562,0.153   C15.823,22.331,15.876,22.274,15.88,22.215z M14.302,24.62c0.295,1.159,1.349,2.539,2.638,2.609   c-0.041,0.271-0.06,0.546-0.071,0.821c-1.079-0.553-2.049-0.963-2.721-2.079c-0.851-1.413-0.751-3.012-0.104-4.468   c0.27,0.212,0.553,0.403,0.862,0.542C14.163,22.487,14.114,23.884,14.302,24.62z M13.818,28.01   c-1.458,1.235-3.485,1.334-5.012,0.188c0.138-0.089,0.269-0.188,0.39-0.299c1.157,0.905,3.011,0.262,3.781-0.907   C13.215,27.361,13.499,27.7,13.818,28.01z M8.567,28.328c1.479,1.48,4.096,1.503,5.535-0.056c0.441,0.376,0.95,0.682,1.506,0.917   c-0.099,0.062-0.2,0.104-0.299,0.161c-0.073,0.003-0.138,0.037-0.188,0.101c-1.976,1.067-4.076,1.16-5.888,0.079   c-0.024-0.087-0.11-0.143-0.209-0.127c-0.363-0.238-0.718-0.507-1.052-0.847C8.18,28.499,8.38,28.425,8.567,28.328z M11.193,33.666   c0.014-0.053,0.038-0.094,0.058-0.139c0.35,0.466,1.162,0.558,1.54,0.119c0.267,0.222,0.534,0.421,0.779,0.583   c0.024,0.016,0.05,0.028,0.075,0.044c-0.432,0.249-0.881,0.397-1.336,0.424c-0.212-0.042-0.427-0.051-0.641-0.039   c-0.136-0.028-0.272-0.09-0.408-0.142C11.145,34.249,11.115,33.955,11.193,33.666z M13.806,34.369   c0.325,0.197,0.665,0.357,1.012,0.492c-0.485,0.184-0.898,0.35-1.409,0.324c-0.124-0.088-0.252-0.169-0.388-0.237   C13.324,34.826,13.597,34.637,13.806,34.369z M14.235,34.008c-0.94-0.532-2.487-1.686-2.797-2.906   c0.004-0.036-0.006-0.067-0.02-0.1c-0.016-0.08-0.044-0.16-0.048-0.241c0.271,0.044,0.543,0.076,0.816,0.081   c0.085,2.001,4.538,3.617,5.904,2.987c0.108,0.222,0.283,0.423,0.494,0.61C17.098,34.885,15.62,34.792,14.235,34.008z    M16.191,35.203c0.342,0.045,0.686,0.053,1.03,0.037c-0.105,0.538-0.214,1.023-0.65,1.45c-0.56,0.548-1.315,0.66-2.05,0.516   c-0.011-0.182-0.04-0.368-0.09-0.555C15.263,36.72,16.113,36.079,16.191,35.203z M14.483,37.709   c0.008-0.061,0.022-0.121,0.026-0.184c0.537,0.155,1.102,0.128,1.615-0.066c0.969,1.125,3.268,1.613,4.336,0.362   c0.115-0.135,0.009-0.41-0.193-0.332c-0.651,0.252-1.16,0.561-1.891,0.555c-0.73-0.007-1.404-0.278-1.983-0.708   c0.131-0.07,0.263-0.139,0.383-0.235c0.137-0.11,0.261-0.248,0.376-0.396c0.692,0.532,1.793,0.759,2.489,0.153   c0.049-0.043,0.056-0.098,0.049-0.151c0.462,0.61,1.028,1.102,1.655,1.486c-0.04,0.033-0.07,0.078-0.071,0.136   c-0.011,1.089-2.927,1.208-3.568,1.142C17.004,39.399,14.512,38.787,14.483,37.709z M16.097,39.573   c-0.208,0.223-0.41,0.426-0.73,0.515c-0.188,0.053-0.389,0.061-0.58,0.021c-0.327-0.069-0.338-0.206-0.398-0.498   c-0.007-0.033-0.026-0.056-0.05-0.069c0.089-0.294,0.153-0.607,0.163-0.956C14.884,38.975,15.52,39.322,16.097,39.573z    M19.452,35.555c0.024-0.071,0.052-0.14,0.054-0.226c0.005-0.143-0.157-0.197-0.262-0.129c-0.069-0.121-0.142-0.239-0.206-0.365   c0.028-0.012,0.056-0.019,0.084-0.031c0.334,0.172,0.697,0.277,1.069,0.327c1.581,3.099,5.797,3.513,8.178,1.088   c0.051-0.052,0.065-0.11,0.067-0.165c0.065,0.008,0.125,0.028,0.192,0.034c0.027,0.002,0.046-0.01,0.065-0.022   c0.091,0.405,0.223,0.793,0.374,1.169c-0.098-0.084-0.251-0.117-0.379-0.017C25.455,39.739,21.47,38.687,19.452,35.555z    M23.942,39.062c-0.132,0.829-0.727,1.504-1.56,1.61c0.244-0.573,0.39-1.19,0.399-1.84C23.158,38.948,23.547,39.02,23.942,39.062z    M24.132,39.936c0.066,0.302,0.18,0.576,0.32,0.832c-0.042-0.072-0.145-0.104-0.219-0.035c-0.46,0.434-0.785,0.888-1.4,1.131   c-0.423,0.167-0.864,0.217-1.302,0.165c0.278-0.336,0.522-0.699,0.714-1.087C22.997,41.011,23.775,40.591,24.132,39.936z    M24.468,40.87c0.008-0.031,0.002-0.059-0.007-0.084c0.189,0.34,0.431,0.647,0.726,0.914c-0.668,0.612-1.128,1.239-2.065,1.538   c-0.93,0.297-1.861,0.213-2.746-0.151c0.328-0.24,0.641-0.499,0.916-0.795C22.463,42.57,24.158,42.144,24.468,40.87z    M25.471,41.931c0.359,0.274,0.784,0.491,1.232,0.683c-0.035,0.022-0.074,0.033-0.099,0.081c-0.647,1.187-1.683,1.969-3.007,2.26   c-1.076,0.236-4.037,0.204-4.77-1.028c0.442-0.171,0.868-0.387,1.266-0.648C21.603,44.26,24.868,43.936,25.471,41.931z    M23.953,46.54c0.211,0.198,0.548,0.362,0.843,0.309c0.026,0.232,0.088,0.457,0.174,0.674c-0.143,0.01-0.286,0.02-0.433-0.001   c-0.349-0.05-0.685-0.176-0.983-0.364c-0.559-0.354-0.922-0.892-1.087-1.519c0.011,0,0.026,0.001,0.037,0.001   c0.376,0,0.746-0.045,1.109-0.114C23.544,45.906,23.663,46.268,23.953,46.54z M24.782,46.429c-0.181-0.014-0.349-0.024-0.524-0.144   c-0.274-0.188-0.408-0.483-0.367-0.812c0.505-0.122,0.988-0.307,1.426-0.565C24.987,45.34,24.804,45.881,24.782,46.429z    M22.109,45.629c0.074,0.775,0.493,1.447,1.135,1.897c0.494,0.346,1.345,0.68,1.994,0.502c0.003,0.004,0.004,0.008,0.006,0.012   c0.076,0.106,0.168,0.194,0.258,0.285c-2.141,0.53-4.183-0.599-4.573-2.822C21.351,45.574,21.765,45.613,22.109,45.629z    M26.288,44.473c0.03-0.026,0.042-0.056,0.044-0.086c0.97-0.344,1.992-0.444,2.78,0.482c0.144,0.169,0.248,0.367,0.33,0.573   c-0.119,0.01-0.167,0.177-0.033,0.214c0.039,0.011,0.08,0.016,0.12,0.025c0.229,0.833,0.007,1.813-0.663,2.368   c-0.935,0.774-2.549,0.562-3.207-0.474C25.01,46.549,25.425,45.218,26.288,44.473z M30.21,46.246   c-0.006-0.171-0.002-0.344-0.037-0.512c1.37-0.057,2.871-1.11,2.85-2.528c0.413-0.072,0.798-0.163,1.125-0.278   c0.058,0.13,0.138,0.25,0.207,0.375c-0.038,0.03-0.076,0.061-0.091,0.114c-0.342,1.216-1.202,2.185-2.304,2.615   c-0.079-0.028-0.169,0-0.199,0.073C31.278,46.26,30.757,46.324,30.21,46.246z M34.69,43.833c0.325,0.443,0.724,0.834,1.186,1.146   c-0.052,0.034-0.094,0.085-0.099,0.165c-0.048,0.81-0.697,1.465-1.471,1.568c-0.024-0.254-0.064-0.508-0.133-0.76   c0.669-0.028,1.37-0.638,1.115-1.354c-0.066-0.185-0.329-0.154-0.342,0.046c-0.033,0.522-0.321,0.978-0.865,1   c-0.027-0.076-0.037-0.154-0.068-0.229c-0.021-0.05-0.059-0.078-0.098-0.1C34.284,44.897,34.561,44.399,34.69,43.833z    M36.208,45.176c0.086,0.048,0.169,0.101,0.259,0.143c0.169,0.078,0.342,0.145,0.516,0.206c-0.031,0.012-0.066,0.008-0.089,0.042   c-0.161,0.236-0.173,0.523-0.305,0.779c-0.161,0.313-0.397,0.588-0.681,0.797c-0.483,0.357-1.042,0.496-1.623,0.471   c0.022-0.205,0.035-0.411,0.029-0.619C35.279,46.949,36.145,46.182,36.208,45.176z M34.243,47.889   c0.643,0.163,1.336,0.018,1.892-0.36c0.521-0.354,1.332-1.23,1.059-1.923c-0.006-0.015-0.023-0.014-0.032-0.027   c0.317,0.098,0.642,0.159,0.968,0.201c-0.372,0.839-0.789,1.558-1.574,2.09c-0.796,0.54-1.59,0.609-2.496,0.726   C34.137,48.365,34.202,48.13,34.243,47.889z M37.638,43c-1.344-0.678-1.97-2.035-2.061-3.458c0.176,0.095,0.362,0.177,0.565,0.23   c-0.004,0.014-0.015,0.021-0.014,0.038c0.051,1.203,0.885,2.339,2.119,2.544c1.082,0.18,2.447-0.527,2.728-1.634   c0.026-0.009,0.052-0.018,0.078-0.026c0.006,0.011,0.004,0.023,0.015,0.032c0.417,0.357,0.836,0.661,1.256,0.917   C41.438,43.281,39.333,43.855,37.638,43z M40.453,40.206c-0.235,0.015-0.474-0.009-0.697-0.087   c-0.238-0.086-0.449-0.217-0.633-0.392c-0.035-0.026-0.059-0.057-0.087-0.086c-0.002-0.012,0.001-0.023-0.001-0.034   c-0.011-0.056-0.05-0.08-0.093-0.089c-0.083-0.143-0.104-0.307-0.05-0.497c0.05,0.054,0.151-0.02,0.105-0.081   c-0.014-0.019-0.027-0.024-0.041-0.04c0.768-0.932,0.858-2.346,0.254-3.41c0.614,0.434,1.284,0.79,1.983,1.05   c0.002,0.049,0.024,0.101,0.077,0.147c0.817,0.713,1.373,1.901,0.532,2.858C41.464,39.931,40.963,40.173,40.453,40.206z    M42.214,39.943c0.54,0.584,2.267,0.25,2.763,0.008c1.321-0.643,1.929-2.118,1.676-3.523c-0.01-0.054-0.041-0.082-0.072-0.107   c0.348-0.18,0.688-0.394,1.011-0.661c0.342,1.75,0.121,3.936-1.71,4.785c-1.398,0.648-2.642-0.168-3.997-0.192   C42.002,40.158,42.114,40.056,42.214,39.943z M44.033,37.007c0.32-0.013,0.639-0.051,0.954-0.113   c-0.014,0.025-0.034,0.046-0.034,0.082c-0.013,1.11-1.075,1.999-2.168,1.766c0.027-0.242,0.008-0.495-0.039-0.745   c0.585,0.144,1.249-0.173,1.394-0.805C44.162,37.094,44.105,37.028,44.033,37.007z M45.218,36.83   c0.353-0.084,0.698-0.206,1.038-0.355c-0.004,0.023-0.02,0.04-0.016,0.067c0.169,1.072-0.222,2.231-1.155,2.845   c-0.388,0.256-0.848,0.415-1.309,0.463c-0.083,0.009-0.978-0.035-1.386-0.127c0.155-0.224,0.284-0.466,0.348-0.737   c1.234,0.365,2.697-0.674,2.584-2.01C45.315,36.9,45.271,36.857,45.218,36.83z M43.838,37.109   c-0.169,0.481-0.674,0.748-1.156,0.602c-0.097-0.315-0.247-0.614-0.455-0.862c0.584,0.13,1.179,0.181,1.769,0.16   C43.933,37.004,43.866,37.029,43.838,37.109z M46.822,35.592c-2.804,1.82-6.029,0.752-8.447-1.114   c0.183-0.058,0.366-0.12,0.545-0.192c0.003,0.003,0.001,0.007,0.004,0.009c1.981,1.717,4.803,2.371,7.094,0.824   c1.866-1.26,2.486-3.707,1.399-5.638c0.129-0.135,0.27-0.259,0.38-0.409c0.262-0.358,0.45-0.735,0.602-1.118   c0.031,0.008,0.06,0.022,0.095,0.013c0.021-0.006,0.039-0.015,0.06-0.021C49.675,30.516,49.359,33.945,46.822,35.592z    M48.261,17.203c-0.44-0.321-0.898-0.61-1.39-0.829c0.009-0.025,0.026-0.043,0.022-0.076c-0.138-1.081-0.566-2.026-1.185-2.808   C46.641,14.584,47.5,15.811,48.261,17.203z M45.129,12.857c-1.477-1.398-3.65-2.062-5.734-1.693   c-1.095-1.427-2.778-2.315-4.58-2.393c0.039-0.065,0.058-0.141,0.009-0.229c-0.43-0.776-1.077-1.348-1.847-1.751   C37.601,7.391,41.815,9.294,45.129,12.857z M29.207,6.577c0.317-0.004,0.629,0.01,0.943,0.016c1.723,0.123,3.354,0.741,4.242,2.181   c-0.528,0.015-1.062,0.085-1.593,0.249c-2.962-4.413-10.479-0.844-9.993,3.191c-0.331-2.196,0.908-4.358,3.423-5.146   C27.116,6.79,28.157,6.605,29.207,6.577z M17.99,8.388c1.669-0.454,3.331-0.341,4.954,0.222c0.338,0.117,0.486-0.421,0.148-0.536   c-0.626-0.212-1.266-0.348-1.909-0.422c1.39-0.344,2.781-0.608,4.163-0.791c-0.181,0.082-0.357,0.167-0.522,0.258   c-1.135,0.627-1.912,1.619-2.299,2.727c-0.226-0.041-0.458-0.047-0.691-0.039c-0.002-0.047-0.018-0.092-0.058-0.126   c-1.38-1.179-3.625-1.144-5.229-0.479c-0.812,0.337-2.858,1.549-2.3,2.672c-0.21,0.13-0.407,0.279-0.599,0.437   C13.638,10.205,16.264,8.858,17.99,8.388z M11.696,16.059c-0.595-0.7-0.921-1.544-0.758-2.503c0.098-0.576,0.346-1.081,0.733-1.521   c0.1-0.114,1.515-1.401,1.719-0.699c0.007,0.023,0.029,0.02,0.045,0.029c-0.033,0.108-0.072,0.214-0.091,0.326   c-0.801,0.105-1.586,1.277-0.867,1.923c0.006,0.005,0.012,0.004,0.018,0.008c-0.339,0.534-0.596,1.12-0.72,1.752   C11.732,15.595,11.71,15.825,11.696,16.059z M13.359,12.559c-0.23,0.218-0.436,0.46-0.627,0.714   c-0.047-0.243-0.086-0.448,0.022-0.721c0.104-0.263,0.315-0.452,0.564-0.575c-0.01,0.175-0.019,0.35,0.009,0.535   C13.331,12.534,13.348,12.543,13.359,12.559z M12.199,16.046c0.195-2.978,2.95-4.713,5.721-4.383   c0.244,0.029,0.285-0.36,0.057-0.421c-0.316-0.085-0.632-0.128-0.946-0.143c0.422-0.683,1.277-0.76,1.841-0.176   c-0.544,0.408-1.033,0.897-1.407,1.445c-0.046-0.067-0.116-0.12-0.221-0.102c-4.412,0.752-6.288,7.335-1.477,9.013   c0.029,0.01,0.054,0.003,0.078-0.006c-0.029,0.305-0.01,0.604,0.03,0.901c-0.008-0.018-0.018-0.035-0.041-0.047   c-0.111-0.06-0.213-0.135-0.321-0.201c-0.002-0.003-0.006-0.003-0.009-0.006C13.472,20.674,12.038,18.509,12.199,16.046z    M11.602,19.293c0.203,0.109,0.417,0.202,0.649,0.269c-0.102,0.28-0.127,0.586-0.057,0.891c0.072,0.311,0.278,0.711,0.577,0.9   c-0.141,0.231-0.256,0.467-0.356,0.705c-0.3-0.442-0.664-0.731-0.828-1.272C11.434,20.28,11.48,19.791,11.602,19.293z    M11.399,19.175c-0.568,0.945-0.313,2.776,0.834,3.152c0.03,0.01,0.059,0.005,0.087-0.002c-0.088,0.246-0.148,0.495-0.196,0.744   c-1.355-1.068-1.893-2.741-1.286-4.345C11.009,18.893,11.195,19.046,11.399,19.175z M10.629,18.477   c-0.941,1.675-0.387,4.127,1.378,5.036c0.017,0.009,0.03,0.001,0.046,0.005c-0.028,0.282-0.015,0.563,0.003,0.843   c-1.235-0.135-2.292-1.814-2.554-2.823c-0.235-0.905-0.195-2.981,0.698-3.683C10.327,18.076,10.467,18.287,10.629,18.477z    M10.092,17.639c-0.462,0.16-0.735,0.817-0.91,1.277c-0.381,1-0.397,2.117-0.049,3.129c0.308,0.894,1.762,2.948,2.992,2.851   c0.031,0.181,0.087,0.356,0.136,0.533c-0.066-0.015-0.128-0.035-0.193-0.051c-0.04-0.041-0.096-0.051-0.148-0.039   c-1.542-0.416-2.805-1.29-3.335-2.932c-0.295-0.915-0.317-1.98-0.122-2.914c0.124-0.572,0.32-1.119,0.587-1.643   c0.146-0.393,0.403-0.686,0.761-0.889C9.892,17.196,9.983,17.424,10.092,17.639z M9.336,15.46c0.14-0.039,0.18-0.164,0.152-0.273   c0.019,0.422,0.073,0.841,0.168,1.243c-0.251,0.026-0.479,0.244-0.685,0.564c-0.045-0.066-0.114-0.117-0.218-0.099   c-3.534,0.604-4.683,4.539-4.016,7.618c-0.025-0.055-0.066-0.097-0.122-0.107C3.384,20.517,5.176,16.61,9.336,15.46z M5.913,33.076   c-1.42-0.432-2.03-2.127-2.347-3.443c-0.428-1.775-0.169-3.222,0.92-4.614c0.039,0.078,0.069,0.157,0.111,0.235   c0.02,0.037,0.053,0.057,0.088,0.065c-0.068,0.193-0.114,0.39-0.147,0.588c-1.302,2.086-0.994,4.919,0.924,6.573   c0.151,0.13,0.365-0.077,0.221-0.221c-1.447-1.446-1.848-3.573-1.116-5.39c0.094,0.418,0.284,0.767,0.557,1.035   c-0.786,0.918-0.241,2.529,0.709,3.114c0.169,0.104,0.307-0.149,0.153-0.261c-0.475-0.345-0.744-0.88-0.784-1.463   C5.176,28.864,5.3,28.525,5.46,28.168c0.143,0.094,0.295,0.179,0.461,0.245c-0.416,0.505-0.151,1.467,0.436,1.746   c0.013,0.006,0.023,0.001,0.035,0.003C6.003,31.071,5.846,32.063,5.913,33.076z M6.373,32.793c-0.019-1.514,0.477-2.88,1.408-4.068   c0.286,0.336,0.603,0.633,0.947,0.888c-2.179,1.94-2.227,5.257-0.283,7.371C6.982,36.536,6.389,34.019,6.373,32.793z M7.623,39.524   c-0.447-0.372-0.771-0.886-0.949-1.437c-0.068-0.211-0.322-2.003,0.097-2.14c0.217,0.366,0.472,0.696,0.776,0.935   c-0.021,0.017-0.044,0.031-0.056,0.061c-0.324,0.806,0.418,1.93,1.337,1.703c0.221,0.745,0.718,1.239,1.339,1.497   C9.274,40.255,8.428,40.195,7.623,39.524z M12.833,39.349c-1.185,0.68-2.755,0.77-3.398-0.634   c-0.255-0.556-0.237-1.187-0.061-1.766c0.187-0.615,0.782-1.857,1.595-1.764c0.036,0.004,0.056-0.013,0.068-0.035   c1.04-0.133,2.137,0.097,2.691,1.094c-0.046,0.04-0.06,0.116,0.007,0.163c0.026,0.018,0.054,0.024,0.08,0.04   C14.26,37.495,13.817,38.784,12.833,39.349z M13.756,35.478c0.472,0.006,0.956-0.099,1.284-0.425   c0.027-0.027,0.034-0.062,0.032-0.098c0.237,0.08,0.479,0.134,0.722,0.183c0,0.002-0.003,0.003-0.003,0.006   c-0.04,0.739-0.755,1.244-1.45,1.208C14.21,36.02,14.008,35.725,13.756,35.478z M14.177,39.972c0.019,0.15,0.071,0.264,0.264,0.379   c0.26,0.153,0.571,0.198,0.868,0.164c0.462-0.054,1.001-0.333,1.137-0.797c0.324,0.125,0.606,0.214,0.769,0.246   c0.11,0.021,0.236,0.039,0.369,0.054c-0.477,0.593-1.014,1.045-1.771,1.257c-0.392,0.11-2.096,0.306-2.325-0.362   C13.767,40.645,14.006,40.336,14.177,39.972z M13.206,41.151c0.311,0.659,1.598,0.756,2.193,0.697   c1.076-0.107,2.178-0.717,2.663-1.711c0.015-0.031,0.005-0.056,0.009-0.084c0.513,0.019,1.104-0.014,1.664-0.124   c-0.534,1.274-1.576,2.023-2.911,2.374c-1.087,0.286-3.497,0.401-4.214-0.784C12.821,41.413,13.022,41.292,13.206,41.151z    M12.338,41.633c1.105,2.797,8.134,1.332,7.856-1.819c0.765-0.223,1.409-0.615,1.604-1.268c0.01-0.034-0.002-0.068-0.007-0.102   c0.2,0.101,0.411,0.178,0.621,0.257c-0.015,0.021-0.038,0.032-0.045,0.062c-0.531,2.171-1.627,3.974-3.867,4.705   c-2.082,0.679-5.4,0.388-6.639-1.669C12.024,41.749,12.185,41.698,12.338,41.633z M18.511,46.498   c0.05-0.009,0.082-0.038,0.106-0.073c0.127,0.271,0.294,0.531,0.483,0.78c-0.899-0.129-1.732-0.082-2.614-0.559   c-1.072-0.579-1.885-1.529-2.347-2.65c0.484,0.151,0.992,0.253,1.503,0.3c-0.001,0.008-0.008,0.012-0.007,0.021   C15.799,45.697,17.122,46.737,18.511,46.498z M18.354,45.629c0.026,0.16,0.069,0.319,0.124,0.476c-0.008,0-0.013-0.008-0.021-0.008   c-1.183,0.086-2.279-0.616-2.597-1.781c0.331,0.022,0.661,0.03,0.98,0.013C16.906,45.034,17.624,45.871,18.354,45.629z    M17.102,44.318c0.288-0.025,0.568-0.064,0.831-0.119c0.194-0.04,0.384-0.091,0.572-0.152c0.015,0.061,0.042,0.115,0.065,0.171   c-0.185,0.365-0.256,0.735-0.244,1.101c-0.244-0.024-0.47-0.034-0.701-0.181C17.322,44.945,17.143,44.659,17.102,44.318z    M9.079,41.907c0.8,0.152,1.64,0.161,2.421-0.016c0.245,0.551,0.633,0.987,1.101,1.336c-0.43,1.256-0.079,2.288,0.686,3.122   C11.498,45.191,9.997,43.722,9.079,41.907z M12.835,43.378c0.346,0.224,0.718,0.419,1.123,0.559   c-0.023,0.022-0.039,0.051-0.029,0.094c0.295,1.266,1.069,2.289,2.185,2.963c0.88,0.532,2.321,1.055,3.328,0.6   c0.343,0.375,0.729,0.69,1.117,0.963C17.61,48.41,12.263,46.992,12.835,43.378z M22.396,48.924   c-1.719-0.568-4.045-2.332-3.639-4.387c0.387,0.475,1.114,0.751,1.86,0.908c0.137,2.582,2.83,4.426,5.295,3.244   c0.009-0.004,0.008-0.013,0.016-0.018c0.138,0.089,0.285,0.161,0.436,0.224C25.069,49.32,23.727,49.364,22.396,48.924z    M25.205,49.681c0.297-0.037,0.595-0.073,0.886-0.15c-0.083,0.172,0.013,0.406,0.163,0.556c0.314,0.313,0.873,0.403,1.294,0.365   c0.082-0.007,0.174-0.025,0.27-0.048c0.066,0.028,0.139,0.047,0.218,0.057c0.626,0.081,1.334-0.289,1.808-0.657   c0.923-0.718,1.557-1.988,1.257-3.157c0.247-0.013,0.493-0.042,0.734-0.099c0.388,1.683-0.28,3.293-2.004,3.969   C28.523,51.031,25.99,51.126,25.205,49.681z M31.295,50.876c-0.633,0.285-1.425,0.421-2.24,0.425   c0.368-0.063,0.709-0.155,0.994-0.266c1.722-0.666,3.152-2.846,2.21-4.606c0.513-0.181,0.985-0.469,1.382-0.834   c0.122,0.371,0.174,0.745,0.194,1.116c-0.006-0.001-0.011,0-0.017-0.001c-0.153-0.028-0.221,0.197-0.065,0.237   c0.03,0.008,0.061,0.006,0.092,0.013C33.841,48.611,32.892,50.157,31.295,50.876z M33.62,49.527c0.125-0.21,0.245-0.424,0.337-0.65   c1.858,0.645,4.304-1.162,4.636-2.983c0.005-0.03-0.01-0.056-0.016-0.084c0.788,0.043,1.579-0.077,2.332-0.316   c0.001,0.058,0.004,0.115-0.003,0.175c-0.03,0.261-0.136,0.51-0.287,0.724c-0.304,0.431-0.8,0.705-1.327,0.69   c0.13-0.34,0.217-0.704,0.248-1.094c0.019-0.243-0.312-0.241-0.39-0.053C38.143,48.366,36.401,49.942,33.62,49.527z M44.039,43.477   c0.264,3.44-2.563,5.843-5.909,5.207c0.059-0.052,0.124-0.098,0.18-0.153c1.111,0.292,2.341,0.119,3.245-0.625   c0.822-0.677,1.6-2.085,1.185-3.155c-0.02-0.052-0.064-0.083-0.112-0.103c0.584-0.396,1.102-0.881,1.518-1.449   c0.02,0.018,0.038,0.038,0.058,0.055C44.109,43.279,44.029,43.342,44.039,43.477z M48.635,42.147   c0.16,0.129,0.149,0.349,0.113,0.563c-0.011,0.006-0.024,0.004-0.035,0.012c-1.303,1.064-3.088,1.406-4.438,0.29   c0.099-0.147,0.19-0.3,0.275-0.457c0.006,0.008,0.006,0.017,0.014,0.024C45.602,43.375,47.973,43.591,48.635,42.147z    M48.719,39.371c-0.708,1.198-1.648,2.071-2.972,2.524c-1.057,0.361-1.997,0.129-2.884-0.323c0.019-0.066,0.054-0.121,0.069-0.19   c0.059-0.274-0.316-0.369-0.414-0.114c-0.012,0.031-0.032,0.056-0.045,0.087c-0.393-0.229-0.778-0.487-1.16-0.749   c0.108-0.047,0.213-0.1,0.312-0.162c1.418,0.941,3.789,1.135,5.132,0.042c1.521-1.237,1.682-3.27,1.289-5.061   c-0.014-0.061-0.051-0.093-0.089-0.122c0.598-0.595,1.036-1.288,1.318-2.04C49.972,35.304,49.837,37.478,48.719,39.371z    M48.985,27.792c0.256-0.103,0.483-0.232,0.697-0.372c0.488,0.775,0.523,1.732,0.067,2.54c-0.076,0.135,0.116,0.239,0.203,0.119   c0.629-0.866,0.625-1.996,0.044-2.876c0.132-0.107,0.229-0.239,0.342-0.36c0.583,1.408,0.347,2.947-0.649,4.121   C49.689,29.88,49.445,28.784,48.985,27.792z M51.507,29.714c-0.35,1.182-1.223,1.742-1.968,2.605   c0.068-0.345,0.115-0.695,0.13-1.048c0.02-0.002,0.04-0.004,0.059-0.019c1.433-1.111,1.811-3.175,0.921-4.735   c0.094-0.128,0.162-0.272,0.241-0.41C51.597,27.173,51.879,28.457,51.507,29.714z" fill="#FFFFFF"/>
	<path d="M11.705,36.894c-0.119,0.139-0.274,0.208-0.446,0.225c-0.025-0.152,0.054-0.285,0.244-0.397   c0.092-0.043,0.027-0.195-0.069-0.164c-0.349,0.115-0.516,0.417-0.428,0.774c0.012,0.048,0.057,0.099,0.107,0.107   c0.368,0.063,0.659-0.077,0.78-0.435C11.928,36.899,11.778,36.809,11.705,36.894z" fill="#FFFFFF"/>
	<path d="M11.778,36.255c-0.095,0.032-0.057,0.167,0.041,0.149c0.469-0.086,0.594,0.265,0.691,0.608   c0.035,0.123,0.212,0.121,0.247,0C12.919,36.466,12.239,36.097,11.778,36.255z" fill="#FFFFFF"/>
	<path d="M10.309,36.455c-0.016,0.181-0.135,0.272-0.356,0.272c0.008-0.152-0.244-0.19-0.269-0.036   c-0.037,0.223,0.07,0.415,0.318,0.435c0.349,0.028,0.46-0.34,0.504-0.617C10.526,36.382,10.348,36.326,10.309,36.455z" fill="#FFFFFF"/>
	<path d="M10.556,38.364c-0.099,0.05-0.029,0.226,0.077,0.183c0.317-0.13,0.483,0.163,0.51,0.421   c0.011,0.11,0.165,0.178,0.226,0.061C11.621,38.552,10.966,38.156,10.556,38.364z" fill="#FFFFFF"/>
	<path d="M27.139,45.188c-0.169,0.16-0.541,0.271-0.607-0.082c-0.028-0.151-0.262-0.112-0.263,0.035   c-0.002,0.629,1.065,0.823,1.13,0.155C27.414,45.157,27.228,45.104,27.139,45.188z" fill="#FFFFFF"/>
	<path d="M27.637,44.572c-0.241-0.091-0.471-0.021-0.605,0.194c-0.084,0.135,0.119,0.245,0.209,0.122   c0.326-0.014,0.499,0.101,0.52,0.347c0.022,0.093,0.039,0.188,0.051,0.283c0.019,0.125,0.203,0.085,0.211-0.028   C28.045,45.143,28.013,44.715,27.637,44.572z" fill="#FFFFFF"/>
	<path d="M27.586,47.339c-0.098,0.033-0.196,0.065-0.294,0.098c-0.305-0.053-0.368-0.125-0.189-0.216   c0.089,0.023,0.147-0.105,0.064-0.151c-0.276-0.152-0.551,0.103-0.509,0.406c0.078,0.558,0.794,0.369,1.069,0.103   C27.827,47.482,27.725,47.293,27.586,47.339z" fill="#FFFFFF"/>
	<path d="M28.322,46.761c-0.078-0.041-0.134,0.064-0.067,0.115c0.09,0.259,0.035,0.423-0.165,0.492   c-0.106,0.042-0.137,0.22,0,0.247C28.607,47.721,28.747,46.982,28.322,46.761z" fill="#FFFFFF"/>
	<path d="M20.938,7.133c-0.056,0.111-0.112,0.222-0.167,0.333c-0.003,0.006,0.006,0.011,0.009,0.005   c0.056-0.111,0.111-0.222,0.167-0.333C20.95,7.132,20.941,7.127,20.938,7.133z" fill="#FFFFFF"/>
	<path style="stroke-width:0;stroke-linecap:round;stroke-linejoin:round;" d="M20.791,7.486   c0.011,0,0.011-0.018,0-0.018" stroke="#FFFFFF" fill="#FFFFFF"/>
</g>
<g>
</g>
<g>
</g>
<g>
</g>
<g>
</g>
<g>
</g>
<g>
</g>
<g>
</g>
<g>
</g>
<g>
</g>
<g>
</g>
<g>
</g>
<g>
</g>
<g>
</g>
<g>
</g>
<g>
</g>
</svg>
