<?xml version="1.0" encoding="UTF-8" standalone="no"?>
<svg
   xmlns:dc="http://purl.org/dc/elements/1.1/"
   xmlns:cc="http://creativecommons.org/ns#"
   xmlns:rdf="http://www.w3.org/1999/02/22-rdf-syntax-ns#"
   xmlns:svg="http://www.w3.org/2000/svg"
   xmlns="http://www.w3.org/2000/svg"
   id="svg8"
   version="1.1"
   viewBox="0 0 210 50"
   height="50mm"
   width="210mm">
  <defs
     id="defs2" />
  <metadata
     id="metadata5">
    <rdf:RDF>
      <cc:Work
         rdf:about="">
        <dc:format>image/svg+xml</dc:format>
        <dc:type
           rdf:resource="http://purl.org/dc/dcmitype/StillImage" />
        <dc:title></dc:title>
      </cc:Work>
    </rdf:RDF>
  </metadata>
  <g
     transform="translate(0,-247)"
     id="layer1">
    <g
       transform="translate(1.0025322,142.87874)"
       id="text4473"
       style="font-size:15.64762974px;font-family:Montserrat;-inkscape-font-specification:Montserrat;stroke-width:0.39119077;fill:#ffffff;fill-opacity:1"
       aria-label="Bolognese Timer">
      <path
         id="path4575"
         style="font-style:normal;font-variant:normal;font-weight:normal;font-stretch:normal;font-size:20.86351013px;font-family:Pacifico;-inkscape-font-specification:Pacifico;letter-spacing:-0.48154166px;stroke-width:0.39119077;fill:#ffffff;fill-opacity:1"
         d="m 76.373069,126.24397 q 0,1.7734 -1.251811,3.06694 -1.25181,1.27267 -3.651114,1.83599 1.293538,0.35468 1.96117,1.16835 0.667632,0.79282 0.667632,1.83599 0,1.64822 -1.043175,2.8583 -1.022312,1.21009 -3.004346,1.87772 -1.982033,0.64677 -4.777743,0.64677 -1.043176,0 -1.669081,-0.0626 -0.02086,0.58418 -0.500724,0.87627 -0.479861,0.29208 -1.230948,0.29208 -0.751086,0 -1.043175,-0.33381 -0.271226,-0.33382 -0.229499,-0.98059 0.187772,-2.92089 0.730223,-6.11301 0.542451,-3.21298 1.376992,-6.19646 0.146044,-0.52159 0.584178,-0.73022 0.438134,-0.20864 1.147493,-0.20864 1.272674,0 1.272674,0.70936 0,0.29209 -0.125181,0.66764 -0.542451,1.62735 -1.084902,4.42306 -0.542452,2.77485 -0.77195,5.29933 1.001448,0.0835 1.627354,0.0835 2.920891,0 4.277019,-0.83454 1.376992,-0.85541 1.376992,-2.16981 0,-0.91799 -0.792814,-1.5439 -0.771949,-0.6259 -2.607938,-0.6885 -0.41727,-0.0209 -0.584179,-0.20863 -0.166908,-0.18777 -0.166908,-0.60504 0,-0.60504 0.250362,-0.98059 0.250363,-0.37554 0.917995,-0.3964 1.481309,-0.0417 2.670529,-0.43814 1.210084,-0.3964 1.89858,-1.10576 0.688495,-0.73023 0.688495,-1.68995 0,-1.21008 -1.18922,-1.89858 -1.18922,-0.70936 -3.651114,-0.70936 -2.232395,0 -4.318746,0.58418 -2.086351,0.56332 -3.546797,1.43958 -0.667633,0.39641 -1.12663,0.39641 -0.375543,0 -0.584178,-0.25036 -0.187772,-0.27123 -0.187772,-0.66763 0,-0.52159 0.208635,-0.89714 0.229499,-0.37554 1.064039,-0.8554 1.752535,-1.00145 4.110112,-1.56476 2.357577,-0.56332 4.819471,-0.56332 3.776295,0 5.633148,1.27268 1.856852,1.27267 1.856852,3.35902 z" />
      <path
         id="path4577"
         style="font-style:normal;font-variant:normal;font-weight:normal;font-stretch:normal;font-size:20.86351013px;font-family:Pacifico;-inkscape-font-specification:Pacifico;letter-spacing:-0.48154166px;stroke-width:0.39119077;fill:#ffffff;fill-opacity:1"
         d="m 85.927201,133.19152 q 0.271226,0 0.41727,0.27123 0.146045,0.27122 0.146045,0.68849 0,1.00145 -0.605042,1.18922 -1.251811,0.43814 -2.753983,0.50073 -0.396407,1.75253 -1.564764,2.81657 -1.168356,1.04318 -2.649666,1.04318 -1.25181,0 -2.148941,-0.60505 -0.876267,-0.60504 -1.335265,-1.60649 -0.458997,-1.00144 -0.458997,-2.1698 0,-1.58563 0.605042,-2.81657 0.605042,-1.25182 1.669081,-1.94031 1.064039,-0.70936 2.357576,-0.70936 1.585627,0 2.545349,1.10577 0.980585,1.0849 1.147493,2.69139 0.980585,-0.0626 2.336713,-0.41727 0.166908,-0.0417 0.292089,-0.0417 z m -6.843231,4.29788 q 0.667632,0 1.147493,-0.54245 0.500724,-0.54245 0.667632,-1.56476 -0.646769,-0.43813 -1.001449,-1.14749 -0.333816,-0.70936 -0.333816,-1.50218 0,-0.33381 0.06259,-0.66763 h -0.104318 q -0.83454,0 -1.397855,0.81368 -0.542451,0.79281 -0.542451,2.25326 0,1.14749 0.438134,1.75253 0.458997,0.60504 1.064039,0.60504 z" />
      <path
         id="path4579"
         style="font-style:normal;font-variant:normal;font-weight:normal;font-stretch:normal;font-size:20.86351013px;font-family:Pacifico;-inkscape-font-specification:Pacifico;letter-spacing:-0.48154166px;stroke-width:0.39119077;fill:#ffffff;fill-opacity:1"
         d="m 92.125569,134.94406 q 0.271226,0 0.41727,0.25036 0.166908,0.25036 0.166908,0.68849 0,0.83454 -0.396406,1.29354 -0.897131,1.10577 -1.96117,1.81513 -1.043176,0.70936 -2.37844,0.70936 -1.835989,0 -2.73312,-1.66908 -0.876268,-1.66909 -0.876268,-4.31875 0,-2.54535 0.646769,-5.80006 0.667632,-3.2547 1.940307,-5.59142 1.293537,-2.33671 3.066936,-2.33671 1.001448,0 1.564763,0.93886 0.584178,0.91799 0.584178,2.64966 0,2.48276 -1.376992,5.75833 -1.376991,3.27557 -3.734568,6.48855 0.146045,0.85541 0.479861,1.23095 0.333816,0.35468 0.876267,0.35468 0.855404,0 1.502173,-0.47986 0.646769,-0.50072 1.648217,-1.68994 0.250362,-0.29209 0.563315,-0.29209 z m -2.566212,-12.89365 q -0.47986,0 -1.084902,1.73167 -0.605042,1.73167 -1.064039,4.29788 -0.458997,2.56621 -0.500724,4.92379 1.481309,-2.44103 2.357576,-4.88206 0.876268,-2.4619 0.876268,-4.48566 0,-1.58562 -0.584179,-1.58562 z" />
      <path
         id="path4581"
         style="font-style:normal;font-variant:normal;font-weight:normal;font-stretch:normal;font-size:20.86351013px;font-family:Pacifico;-inkscape-font-specification:Pacifico;letter-spacing:-0.48154166px;stroke-width:0.39119077;fill:#ffffff;fill-opacity:1"
         d="m 101.18224,133.19152 q 0.27122,0 0.41727,0.27123 0.14604,0.27122 0.14604,0.68849 0,1.00145 -0.60504,1.18922 -1.251809,0.43814 -2.753982,0.50073 -0.396407,1.75253 -1.564763,2.81657 -1.168357,1.04318 -2.649666,1.04318 -1.251811,0 -2.148942,-0.60505 -0.876267,-0.60504 -1.335264,-1.60649 -0.458998,-1.00144 -0.458998,-2.1698 0,-1.58563 0.605042,-2.81657 0.605042,-1.25182 1.669081,-1.94031 1.064039,-0.70936 2.357577,-0.70936 1.585626,0 2.545348,1.10577 0.980585,1.0849 1.147493,2.69139 0.980585,-0.0626 2.336714,-0.41727 0.16691,-0.0417 0.29209,-0.0417 z m -6.843233,4.29788 q 0.667632,0 1.147493,-0.54245 0.500724,-0.54245 0.667632,-1.56476 -0.646769,-0.43813 -1.001448,-1.14749 -0.333816,-0.70936 -0.333816,-1.50218 0,-0.33381 0.06259,-0.66763 h -0.104317 q -0.834541,0 -1.397856,0.81368 -0.542451,0.79281 -0.542451,2.25326 0,1.14749 0.438134,1.75253 0.458997,0.60504 1.064039,0.60504 z" />
      <path
         id="path4583"
         style="font-style:normal;font-variant:normal;font-weight:normal;font-stretch:normal;font-size:20.86351013px;font-family:Pacifico;-inkscape-font-specification:Pacifico;letter-spacing:-0.48154166px;stroke-width:0.39119077;fill:#ffffff;fill-opacity:1"
         d="m 110.15545,134.98578 q 0.27123,0 0.41727,0.27123 0.16691,0.25036 0.16691,0.64677 0,0.47986 -0.14604,0.75108 -0.14605,0.27123 -0.459,0.47986 -1.79426,1.21009 -2.6288,1.79427 l -1.33527,0.89713 q -0.79281,4.31874 -2.08635,6.78064 -1.27267,2.48276 -3.25471,2.48276 -1.064037,0 -1.731669,-0.66764 -0.667632,-0.64677 -0.667632,-1.7108 0,-1.48131 1.168356,-3.19212 1.168355,-1.68995 4.381335,-4.1727 l 0.12518,-0.81368 q -0.35468,0.56331 -0.93885,0.87627 -0.56332,0.29209 -1.12663,0.29209 -1.29354,0 -2.065492,-0.93886 -0.771949,-0.93886 -0.771949,-2.4619 0,-1.66908 0.771949,-3.15039 0.771952,-1.50217 2.044622,-2.3993 1.29354,-0.91799 2.73312,-0.91799 0.459,0 0.60504,0.18777 0.16691,0.16691 0.27123,0.6259 0.39641,-0.0834 0.91799,-0.0834 0.52159,0 0.73023,0.16691 0.2295,0.14604 0.2295,0.60504 0,0.25036 -0.0209,0.39641 -0.0834,0.64676 -0.52159,3.27557 -0.0834,0.50072 -0.18777,1.10576 -0.0834,0.58418 -0.18777,1.25181 1.60649,-1.25181 3.0878,-2.21153 0.27123,-0.16691 0.47986,-0.16691 z m -7.36482,2.60794 q 0.47986,0 0.918,-0.58418 0.43813,-0.58417 0.6259,-1.66908 l 0.66763,-3.56766 q -0.8554,0.0209 -1.58562,0.66763 -0.73023,0.62591 -1.16836,1.66909 -0.43813,1.04317 -0.43813,2.21153 0,0.64677 0.25036,0.95972 0.27123,0.31295 0.73022,0.31295 z m -1.73167,9.47204 q 0.52159,0 1.16836,-1.25182 0.66763,-1.25181 1.27267,-3.98493 -1.60649,1.377 -2.31585,2.48276 -0.70936,1.10577 -0.70936,1.94031 0,0.35468 0.12518,0.58418 0.14605,0.2295 0.459,0.2295 z" />
      <path
         id="path4585"
         style="font-style:normal;font-variant:normal;font-weight:normal;font-stretch:normal;font-size:20.86351013px;font-family:Pacifico;-inkscape-font-specification:Pacifico;letter-spacing:-0.48154166px;stroke-width:0.39119077;fill:#ffffff;fill-opacity:1"
         d="m 110.21212,139.70094 q -0.79281,0 -1.12663,-0.83454 -0.31295,-0.83454 -0.31295,-2.67053 0,-2.71226 0.77195,-5.15329 0.18777,-0.60504 0.60504,-0.87627 0.43814,-0.29209 1.21009,-0.29209 0.41727,0 0.58418,0.10432 0.1669,0.10432 0.1669,0.39641 0,0.33381 -0.31295,1.50217 -0.20863,0.83454 -0.33382,1.46045 -0.12518,0.6259 -0.20863,1.5439 0.6885,-1.79427 1.5439,-2.9209 0.8554,-1.12663 1.66908,-1.60649 0.83454,-0.47986 1.52304,-0.47986 1.35612,0 1.35612,1.35613 0,0.81368 -0.45899,2.94176 -0.39641,1.81512 -0.39641,2.3993 0,0.83454 0.60504,0.83454 0.41727,0 0.98059,-0.50072 0.58418,-0.52159 1.5439,-1.66908 0.25036,-0.29209 0.56331,-0.29209 0.27123,0 0.41727,0.25036 0.16691,0.25036 0.16691,0.68849 0,0.83454 -0.39641,1.29354 -0.89713,1.10577 -1.9403,1.81513 -1.02231,0.70936 -2.33672,0.70936 -1.06404,0 -1.60649,-0.60505 -0.54245,-0.6259 -0.54245,-1.79426 0,-0.58418 0.29209,-2.08635 0.27123,-1.3144 0.27123,-1.81512 0,-0.33382 -0.2295,-0.33382 -0.27123,0 -0.77195,0.70936 -0.47986,0.6885 -1.00145,1.83599 -0.50072,1.14749 -0.81368,2.42017 -0.2295,0.98058 -0.54245,1.33526 -0.29209,0.33382 -0.93886,0.33382 z" />
      <path
         id="path4587"
         style="font-style:normal;font-variant:normal;font-weight:normal;font-stretch:normal;font-size:20.86351013px;font-family:Pacifico;-inkscape-font-specification:Pacifico;letter-spacing:-0.48154166px;stroke-width:0.39119077;fill:#ffffff;fill-opacity:1"
         d="m 127.90465,134.94406 q 0.27123,0 0.41727,0.25036 0.16691,0.25036 0.16691,0.68849 0,0.83454 -0.3964,1.29354 -0.77195,0.93886 -2.19067,1.73167 -1.39786,0.79282 -3.00435,0.79282 -2.19067,0 -3.40075,-1.18922 -1.21008,-1.18922 -1.21008,-3.25471 0,-1.43958 0.60504,-2.67053 0.60504,-1.25181 1.66908,-1.98203 1.0849,-0.73023 2.44103,-0.73023 1.21008,0 1.94031,0.73023 0.73022,0.70936 0.73022,1.9403 0,1.43958 -1.04318,2.48276 -1.02231,1.02231 -3.4842,1.62735 0.52158,0.95973 1.98203,0.95973 0.93886,0 2.12808,-0.64677 1.21008,-0.66764 2.08635,-1.73167 0.25036,-0.29209 0.56331,-0.29209 z m -5.2576,-3.02521 q -0.77195,0 -1.3144,0.89713 -0.52159,0.89713 -0.52159,2.1698 v 0.0417 q 1.23095,-0.29209 1.94031,-0.87627 0.70936,-0.58418 0.70936,-1.35613 0,-0.3964 -0.2295,-0.6259 -0.20864,-0.25036 -0.58418,-0.25036 z" />
      <path
         id="path4589"
         style="font-style:normal;font-variant:normal;font-weight:normal;font-stretch:normal;font-size:20.86351013px;font-family:Pacifico;-inkscape-font-specification:Pacifico;letter-spacing:-0.48154166px;stroke-width:0.39119077;fill:#ffffff;fill-opacity:1"
         d="m 130.18916,140.15993 q -1.0849,0 -1.66908,-0.50072 -0.56332,-0.50073 -0.56332,-1.12663 0,-0.54245 0.39641,-0.93886 0.39641,-0.39641 1.16836,-0.39641 0.27122,0 0.6259,0.0626 0.37555,0.0417 0.56332,0.0626 -0.0209,-0.54246 -0.25036,-1.02232 -0.20864,-0.47986 -0.54246,-0.91799 -0.33381,-0.459 -0.6259,-0.79281 -0.64677,1.23094 -1.29354,2.04462 -0.6259,0.81368 -1.37699,1.5439 -0.37554,0.37554 -0.79281,0.37554 -0.33382,0 -0.54246,-0.2295 -0.20863,-0.25036 -0.20863,-0.60504 0,-0.41727 0.29209,-0.77195 l 0.27122,-0.33381 q 1.1475,-1.41872 1.73168,-2.33672 0.35468,-0.60504 0.83454,-1.60649 0.47986,-1.02231 0.93885,-2.10721 0.39641,-0.918 1.64822,-0.918 0.58418,0 0.81368,0.10432 0.2295,0.10432 0.2295,0.33382 0,0.12518 -0.0835,0.3964 -0.0834,0.27123 -0.2295,0.54246 -0.37554,0.75108 -0.37554,1.27267 0,0.31295 0.20864,0.6885 0.22949,0.37554 0.68849,0.93885 0.66763,0.87627 1.00145,1.50218 0.35468,0.60504 0.35468,1.33526 0,0.20864 -0.0417,0.58418 1.02232,-0.39641 2.39931,-2.10721 0.25036,-0.29209 0.56331,-0.29209 0.27123,0 0.41727,0.25036 0.16691,0.25036 0.16691,0.68849 0,0.79282 -0.39641,1.29354 -1.04317,1.29354 -2.00289,1.7734 -0.93886,0.459 -2.33672,0.50072 -0.83454,0.70936 -1.98203,0.70936 z" />
      <path
         id="path4591"
         style="font-style:normal;font-variant:normal;font-weight:normal;font-stretch:normal;font-size:20.86351013px;font-family:Pacifico;-inkscape-font-specification:Pacifico;letter-spacing:-0.48154166px;stroke-width:0.39119077;fill:#ffffff;fill-opacity:1"
         d="m 142.22018,135.56996 q 0.27123,0 0.41727,0.25036 0.16691,0.25037 0.16691,0.6885 0,0.75109 -0.35468,1.29354 -0.58418,0.89713 -1.5439,1.39785 -0.93886,0.50073 -2.25326,0.50073 -2.0029,0 -3.10866,-1.18922 -1.10577,-1.21009 -1.10577,-3.25471 0,-1.43958 0.60504,-2.67053 0.60505,-1.25181 1.66908,-1.98203 1.08491,-0.73023 2.44103,-0.73023 1.21009,0 1.94031,0.73023 0.73022,0.70936 0.73022,1.9403 0,1.43958 -1.04317,2.48276 -1.02231,1.02231 -3.50507,1.62735 0.50072,0.95973 1.68994,0.95973 0.85541,0 1.39786,-0.39641 0.56331,-0.39641 1.29354,-1.33527 0.25036,-0.31295 0.56331,-0.31295 z m -3.42161,-3.65111 q -0.77195,0 -1.31441,0.89713 -0.52158,0.89713 -0.52158,2.1698 v 0.0417 q 1.23094,-0.29209 1.9403,-0.87627 0.70936,-0.58418 0.70936,-1.35613 0,-0.3964 -0.2295,-0.6259 -0.20863,-0.25036 -0.58417,-0.25036 z" />
      <path
         id="path4593"
         style="font-style:normal;font-variant:normal;font-weight:normal;font-stretch:normal;font-size:20.86351013px;font-family:Pacifico;-inkscape-font-specification:Pacifico;letter-spacing:-0.48154166px;stroke-width:0.39119077;fill:#ffffff;fill-opacity:1"
         d="m 164.43189,122.27991 q 0.64677,0.12518 0.95972,0.43813 0.33382,0.31295 0.33382,0.73022 0,0.6885 -0.39641,1.00145 -0.37554,0.31295 -1.21008,0.25036 -1.87772,-0.14604 -2.94175,-0.18777 -1.04318,-0.0626 -2.75399,-0.0834 -0.77195,3.83888 -1.41872,7.7195 -0.2295,1.41871 -0.47986,3.29643 -0.25036,1.85685 -0.33381,3.00435 -0.0417,0.60504 -0.50073,0.93885 -0.45899,0.31296 -1.10576,0.31296 -0.6885,0 -1.06404,-0.33382 -0.37555,-0.33382 -0.37555,-0.87627 0,-0.50072 0.14605,-1.64821 0.16691,-1.16836 0.37554,-2.44104 0.2295,-1.27267 0.35468,-2.21153 0.2295,-1.58562 0.52159,-3.15039 0.29209,-1.56476 0.58418,-2.96262 0.0626,-0.31295 0.14604,-0.70936 0.0835,-0.41727 0.18777,-0.91799 -2.04462,0.0626 -3.21298,0.33382 -1.16835,0.27122 -1.66908,0.77195 -0.47986,0.47986 -0.47986,1.25181 0,0.70936 0.41727,1.35613 0.0835,0.14604 0.0835,0.31295 0,0.3964 -0.47986,0.75108 -0.459,0.33382 -0.95973,0.33382 -0.35468,0 -0.58417,-0.20863 -0.41727,-0.35468 -0.6885,-1.00145 -0.27123,-0.66764 -0.27123,-1.50218 0,-1.77339 1.1475,-2.83743 1.16835,-1.08491 3.52593,-1.58563 2.37844,-0.50072 6.09215,-0.50072 2.29498,0 3.65111,0.0834 1.37699,0.0834 2.3993,0.27123 z" />
      <path
         id="path4595"
         style="font-style:normal;font-variant:normal;font-weight:normal;font-stretch:normal;font-size:20.86351013px;font-family:Pacifico;-inkscape-font-specification:Pacifico;letter-spacing:-0.48154166px;stroke-width:0.39119077;fill:#ffffff;fill-opacity:1"
         d="m 164.07488,128.49723 q -0.87627,0 -1.3144,-0.39641 -0.43814,-0.41727 -0.43814,-1.14749 0,-0.73022 0.56332,-1.21008 0.58418,-0.50073 1.43958,-0.50073 0.77195,0 1.25181,0.37555 0.47986,0.37554 0.47986,1.06404 0,0.83454 -0.54245,1.33526 -0.54245,0.47986 -1.43958,0.47986 z m -0.16691,11.20371 q -1.35613,0 -1.98203,-0.95973 -0.60505,-0.95972 -0.60505,-2.54534 0,-0.93886 0.2295,-2.39931 0.25036,-1.48131 0.62591,-2.75398 0.18777,-0.66763 0.50072,-0.91799 0.31295,-0.25037 1.00145,-0.25037 1.06404,0 1.06404,0.70936 0,0.52159 -0.39641,2.42017 -0.50072,2.29499 -0.50072,3.10866 0,0.62591 0.16691,0.95972 0.16691,0.33382 0.56331,0.33382 0.37554,0 0.93886,-0.52159 0.56331,-0.52159 1.50217,-1.64821 0.25036,-0.29209 0.56332,-0.29209 0.27122,0 0.41727,0.25036 0.16691,0.25036 0.16691,0.68849 0,0.83454 -0.39641,1.29354 -2.06549,2.52449 -3.85975,2.52449 z" />
      <path
         id="path4597"
         style="font-style:normal;font-variant:normal;font-weight:normal;font-stretch:normal;font-size:20.86351013px;font-family:Pacifico;-inkscape-font-specification:Pacifico;letter-spacing:-0.48154166px;stroke-width:0.39119077;fill:#ffffff;fill-opacity:1"
         d="m 167.47591,139.70094 q -0.79282,0 -1.12663,-0.83454 -0.31296,-0.83454 -0.31296,-2.67053 0,-2.71226 0.77195,-5.15329 0.18778,-0.60504 0.60505,-0.87627 0.43813,-0.29209 1.21008,-0.29209 0.41727,0 0.58418,0.10432 0.16691,0.10432 0.16691,0.39641 0,0.33381 -0.31296,1.50217 -0.20863,0.83454 -0.33381,1.46045 -0.12518,0.60504 -0.20864,1.52303 0.56332,-1.62735 1.33527,-2.75398 0.79281,-1.12663 1.60649,-1.66908 0.83454,-0.56332 1.56476,-0.56332 0.73022,0 1.02231,0.33382 0.31295,0.33382 0.31295,1.02231 0,0.66763 -0.3964,2.42017 -0.16691,0.75108 -0.2295,1.12663 1.04318,-2.56621 2.31585,-3.73457 1.27267,-1.16836 2.37844,-1.16836 1.35613,0 1.35613,1.35613 0,0.81368 -0.459,2.94176 -0.39641,1.81512 -0.39641,2.3993 0,0.83454 0.60505,0.83454 0.41727,0 0.98058,-0.50072 0.58418,-0.52159 1.5439,-1.66908 0.25036,-0.29209 0.56331,-0.29209 0.27123,0 0.41728,0.25036 0.1669,0.25036 0.1669,0.68849 0,0.83454 -0.3964,1.29354 -0.89713,1.10577 -1.94031,1.81513 -1.02231,0.70936 -2.33671,0.70936 -1.06404,0 -1.60649,-0.60505 -0.54245,-0.6259 -0.54245,-1.79426 0,-0.58418 0.29208,-2.08635 0.27123,-1.3144 0.27123,-1.81512 0,-0.33382 -0.2295,-0.33382 -0.27122,0 -0.77195,0.70936 -0.50072,0.6885 -1.00145,1.83599 -0.50072,1.14749 -0.81367,2.42017 -0.2295,1.00144 -0.54246,1.33526 -0.29208,0.33382 -0.95972,0.33382 -0.68849,0 -1.04317,-0.64677 -0.33382,-0.66763 -0.33382,-1.60649 0,-0.79282 0.20864,-2.29499 0.16691,-1.33526 0.16691,-1.75253 0,-0.33382 -0.2295,-0.33382 -0.31296,0 -0.79282,0.75109 -0.47986,0.75108 -0.93885,1.91944 -0.43814,1.16836 -0.70936,2.29499 -0.2295,0.98058 -0.54246,1.33526 -0.29208,0.33382 -0.93885,0.33382 z" />
      <path
         id="path4599"
         style="font-style:normal;font-variant:normal;font-weight:normal;font-stretch:normal;font-size:20.86351013px;font-family:Pacifico;-inkscape-font-specification:Pacifico;letter-spacing:-0.48154166px;stroke-width:0.39119077;fill:#ffffff;fill-opacity:1"
         d="m 190.34357,134.94406 q 0.27122,0 0.41727,0.25036 0.16691,0.25036 0.16691,0.68849 0,0.83454 -0.39641,1.29354 -0.77195,0.93886 -2.19067,1.73167 -1.39785,0.79282 -3.00434,0.79282 -2.19067,0 -3.40076,-1.18922 -1.21008,-1.18922 -1.21008,-3.25471 0,-1.43958 0.60504,-2.67053 0.60504,-1.25181 1.66908,-1.98203 1.08491,-0.73023 2.44103,-0.73023 1.21009,0 1.94031,0.73023 0.73022,0.70936 0.73022,1.9403 0,1.43958 -1.04317,2.48276 -1.02231,1.02231 -3.48421,1.62735 0.52159,0.95973 1.98204,0.95973 0.93885,0 2.12807,-0.64677 1.21009,-0.66764 2.08635,-1.73167 0.25037,-0.29209 0.56332,-0.29209 z m -5.25761,-3.02521 q -0.77195,0 -1.3144,0.89713 -0.52158,0.89713 -0.52158,2.1698 v 0.0417 q 1.23094,-0.29209 1.9403,-0.87627 0.70936,-0.58418 0.70936,-1.35613 0,-0.3964 -0.2295,-0.6259 -0.20863,-0.25036 -0.58418,-0.25036 z" />
      <path
         id="path4601"
         style="font-style:normal;font-variant:normal;font-weight:normal;font-stretch:normal;font-size:20.86351013px;font-family:Pacifico;-inkscape-font-specification:Pacifico;letter-spacing:-0.48154166px;stroke-width:0.39119077;fill:#ffffff;fill-opacity:1"
         d="m 197.17632,132.73252 q 0.45899,0 0.77195,0.33382 0.33381,0.31295 0.33381,0.79281 0,0.27123 -0.12518,0.58418 -0.33381,0.77195 -0.93886,1.29354 -0.60504,0.52159 -1.33526,0.52159 -0.58418,0 -1.00145,-0.41727 -0.39641,-0.41727 -0.39641,-1.12663 0,-0.39641 0.0417,-0.85541 0.0417,-0.33381 0.0417,-0.45899 0,-0.16691 -0.0835,-0.25037 -0.0626,-0.0834 -0.1669,-0.0834 -0.29209,0 -0.79282,0.70936 -0.50072,0.6885 -1.00145,1.83599 -0.50072,1.14749 -0.81367,2.42017 -0.2295,1.00144 -0.52159,1.33526 -0.29209,0.33382 -0.95972,0.33382 -0.79282,0 -1.12663,-0.83454 -0.31295,-0.83454 -0.31295,-2.67053 0,-2.71226 0.77195,-5.15329 0.18777,-0.60504 0.60504,-0.87627 0.43813,-0.29209 1.21008,-0.29209 0.41727,0 0.58418,0.10432 0.16691,0.10432 0.16691,0.39641 0,0.33381 -0.31296,1.50217 -0.20863,0.83454 -0.33381,1.46045 -0.12518,0.6259 -0.20864,1.5439 0.6885,-1.79427 1.5439,-2.9209 0.85541,-1.12663 1.66908,-1.60649 0.81368,-0.47986 1.48131,-0.47986 0.60504,0 0.918,0.35468 0.33381,0.33382 0.33381,1.00145 0,0.39641 -0.2295,1.50217 z" />
    </g>
    <g
       style="fill:#ffffff;fill-opacity:1"
       transform="matrix(0.13044862,0,0,0.13044862,16.093716,252.08302)"
       id="g4543">
      <g
         style="fill:#ffffff;fill-opacity:1"
         id="g4485">
        <g
           style="fill:#ffffff;fill-opacity:1"
           id="g4483">
          <g
             style="fill:#ffffff;fill-opacity:1"
             id="g4481">
            <path
               style="fill:#ffffff;fill-opacity:1"
               d="m 253.218,100.913 c 1.805,-1.496 2.826,-3.75 2.717,-6.111 -0.117,-2.529 -1.502,-4.828 -3.682,-6.114 -32.273,-19.027 -62.49,-23.464 -76.189,-24.479 0,0 -0.035,-21.31 0,-22.514 2.734,-0.392 8.023,-0.392 10.615,-0.392 2.789,0 5.348,-1.547 6.643,-4.016 1.295,-2.47 1.113,-5.453 -0.471,-7.747 L 174.681,3.237 C 173.28,1.21 170.974,0 168.509,0 h -9.162 c -13.66,0 -24.955,10.67 -25.709,24.144 0,0 -0.043,1.009 -0.043,1.502 l 0.016,38.549 c -13.707,1.009 -43.914,5.427 -76.158,24.424 -2.182,1.285 -3.566,3.584 -3.686,6.112 -0.109,2.386 0.93,4.661 2.77,6.156 -22.477,11.754 -52.52,38.013 -52.348,94.407 0.102,33.47 16.131,63.346 45.139,84.122 27.267,19.531 64.744,30.287 105.523,30.287 40.779,0 78.256,-10.756 105.523,-30.287 29.006,-20.776 45.037,-50.651 45.141,-84.122 0.168,-56.345 -29.825,-82.611 -52.297,-94.381 z M 140.956,78.905 c 2.012,0.028 3.965,-0.729 5.404,-2.141 1.441,-1.411 2.254,-3.344 2.252,-5.36 L 148.594,26.803 C 148.653,26.427 148.358,15 159.347,15 h 5.229 l 8.289,12.001 c -3.496,0.62 -6.166,1.789 -8.303,3.983 -3.936,4.044 -3.695,9.091 -3.629,15.485 0.025,2.353 0.137,24.954 0.137,24.954 0.002,2.009 0.818,3.934 2.25,5.342 1.434,1.407 3.338,2.159 5.389,2.149 0.311,-0.014 29.488,-0.275 63.57,16.101 -6.951,2.725 -16.805,5.484 -29.092,6.09 -2.5,0.124 -4.773,1.486 -6.063,3.633 -1.287,2.146 -1.42,4.794 -0.352,7.058 0.061,0.127 4.887,10.673 -0.26,22.288 -9.545,-9.328 -26.912,-25.008 -39.438,-28.887 l -0.002,0.002 c -1.395,-0.435 -2.932,-0.468 -4.432,-0.003 -12.521,3.87 -29.877,19.536 -39.418,28.858 -5.064,-11.42 -0.502,-21.814 -0.285,-22.297 1.066,-2.263 0.936,-4.908 -0.352,-7.054 -1.287,-2.146 -3.559,-3.508 -6.057,-3.633 C 94.342,100.46 84.462,97.673 77.469,94.93 111.503,78.613 140.64,78.896 140.956,78.905 Z M 251.64,267.222 c -24.742,17.722 -59.115,27.482 -96.789,27.482 -37.674,0 -72.047,-9.76 -96.789,-27.482 -25.344,-18.153 -38.785,-43.041 -38.873,-71.973 -0.176,-58.093 36.287,-78.888 54.596,-85.654 6.104,2.259 13.734,4.405 22.717,5.607 -1.518,8.923 -1.201,22.616 9.725,35.62 1.375,1.638 3.385,2.61 5.523,2.673 0.074,0.002 0.146,0.003 0.219,0.003 2.061,0 4.033,-0.848 5.453,-2.351 9.297,-9.844 26.918,-26.062 37.432,-30.767 10.508,4.709 28.154,20.944 37.469,30.799 1.418,1.502 3.391,2.35 5.449,2.35 0.074,0 0.148,-0.002 0.221,-0.004 2.139,-0.063 4.148,-1.035 5.523,-2.673 10.914,-12.995 11.225,-26.686 9.701,-35.609 9.016,-1.201 16.67,-3.354 22.781,-5.619 18.336,6.8 54.691,27.619 54.518,85.625 -0.089,28.932 -13.533,53.819 -38.876,71.973 z"
               fill="#FFFFFF"
               id="path4479" />
          </g>
        </g>
      </g>
      <g
         style="fill:#ffffff;fill-opacity:1"
         id="g4487" />
      <g
         style="fill:#ffffff;fill-opacity:1"
         id="g4489" />
      <g
         style="fill:#ffffff;fill-opacity:1"
         id="g4491" />
      <g
         style="fill:#ffffff;fill-opacity:1"
         id="g4493" />
      <g
         style="fill:#ffffff;fill-opacity:1"
         id="g4495" />
      <g
         style="fill:#ffffff;fill-opacity:1"
         id="g4497" />
      <g
         style="fill:#ffffff;fill-opacity:1"
         id="g4499" />
      <g
         style="fill:#ffffff;fill-opacity:1"
         id="g4501" />
      <g
         style="fill:#ffffff;fill-opacity:1"
         id="g4503" />
      <g
         style="fill:#ffffff;fill-opacity:1"
         id="g4505" />
      <g
         style="fill:#ffffff;fill-opacity:1"
         id="g4507" />
      <g
         style="fill:#ffffff;fill-opacity:1"
         id="g4509" />
      <g
         style="fill:#ffffff;fill-opacity:1"
         id="g4511" />
      <g
         style="fill:#ffffff;fill-opacity:1"
         id="g4513" />
      <g
         style="fill:#ffffff;fill-opacity:1"
         id="g4515" />
    </g>
  </g>
</svg>
